<svg xmlns="http://www.w3.org/2000/svg" width="32" height="32" viewBox="0 0 32 32"><g fill="currentColor"><path d="M7.027 5.12a1 1 0 0 1 1.414 0l1.414 1.415a1 1 0 0 1-1.414 1.414L7.027 6.535a1 1 0 0 1 0-1.414Zm7.981 1.755a1 1 0 0 1 1.984 0c.009.069.064.125.133.125h3.75c.07 0 .124-.056.133-.125a1 1 0 0 1 1.984 0c.009.069.064.125.133.125H25a1 1 0 1 1 0 2h-1.875a.125.125 0 0 0-.125.125v.75c0 .069.056.125.125.125H26a1 1 0 0 1 0 2h-5.875a.125.125 0 0 0-.125.125v.75c0 .069.056.125.125.125H26a1 1 0 0 1 1 1v12a1 1 0 0 1-1 1h-3a1 1 0 0 1 0-2h1.875c.07 0 .125-.056.125-.125v-9.75a.125.125 0 0 0-.125-.125h-4.75a.125.125 0 0 0-.125.125v6.75c0 .069.056.125.125.125h.75c.07 0 .125-.056.125-.125V20a1 1 0 0 1 2 0v3a1 1 0 0 1-1 1h-4.875c-.069 0-.124.056-.133.125A1 1 0 0 1 15 24v-4a1 1 0 0 1 2 0v1.875c0 .069.056.125.125.125h.75c.07 0 .125-.056.125-.125v-6.75a.125.125 0 0 0-.125-.125h-4.75a.125.125 0 0 0-.125.125V26a1 1 0 1 1-2 0V14a1 1 0 0 1 1-1h5.875c.07 0 .125-.056.125-.125v-.75a.125.125 0 0 0-.125-.125H12a1 1 0 0 1 0-2h2.875c.07 0 .125-.056.125-.125v-.75A.125.125 0 0 0 14.875 9H13a1 1 0 0 1 0-2h1.875c.07 0 .124-.056.133-.125ZM21 9.125A.125.125 0 0 0 20.875 9h-3.75a.125.125 0 0 0-.125.125v.75c0 .069.056.125.125.125h3.75c.07 0 .125-.056.125-.125v-.75ZM4.721 24.597a1 1 0 0 0 1.813.846l2.958-6.345a1 1 0 1 0-1.813-.845l-2.958 6.344Zm3.013-14.521A1 1 0 1 0 6.32 11.49l1.414 1.415a1 1 0 0 0 1.414-1.415l-1.414-1.414Z"/><path d="M6 1a5 5 0 0 0-5 5v20a5 5 0 0 0 5 5h20a5 5 0 0 0 5-5V6a5 5 0 0 0-5-5H6ZM3 6a3 3 0 0 1 3-3h20a3 3 0 0 1 3 3v20a3 3 0 0 1-3 3H6a3 3 0 0 1-3-3V6Z"/></g></svg>
