<svg xmlns="http://www.w3.org/2000/svg" width="24" height="24" viewBox="0 0 24 24"><path fill="currentColor" d="M12 2a10 10 0 1 0 10 10A10 10 0 0 0 12 2Zm0 18a8 8 0 0 1-8-8a7.92 7.92 0 0 1 1.69-4.9l2.36 2.37A3.07 3.07 0 0 0 8 10v4a3 3 0 0 0 3 3h2a3 3 0 0 0 1.89-.69l2 2A7.92 7.92 0 0 1 12 20Zm-2-6v-2.59l3.46 3.46A.91.91 0 0 1 13 15h-2a1 1 0 0 1-1-1Zm8.31 2.9L16 14.53a3.07 3.07 0 0 0 0-.53a1 1 0 0 0-1-1a.91.91 0 0 0-.46.13l-4-4A.91.91 0 0 1 11 9h2a1 1 0 0 1 1 1a1 1 0 0 0 2 0a3 3 0 0 0-3-3h-2a3 3 0 0 0-1.89.69l-2-2A7.92 7.92 0 0 1 12 4a8 8 0 0 1 8 8a7.92 7.92 0 0 1-1.69 4.9Z"/></svg>