<?xml version="1.0" encoding="utf-8"?>
<!-- Generator: Adobe Illustrator 24.3.0, SVG Export Plug-In . SVG Version: 6.00 Build 0) -->
<svg version="1.1" id="图层_1" xmlns="http://www.w3.org/2000/svg" xmlns:xlink="http://www.w3.org/1999/xlink" x="0px" y="0px" width="1280px" height="416px" viewBox="0 0 1280 416" style="enable-background:new 0 0 1280 416;" xml:space="preserve">
	<style type="text/css">
		#logo:hover path[name="新世"] {
		d: path(
		"M330,329.5c-81.7,0-163.3,0-245,0c-1.1,0-2.1,0-3.4,0c0-88,0-175.9,0-263.9c88.1,0,176,0,264.2,0c0,38.2,0,76.4,0,114.9 c4,0.5,7.9,0.9,11.9,1.4c-0.5,3.5-3,4.8-5.8,5.5c-1.4,0.4-1.9,0.9-1.9,2.3c0,15.2,0,30.5,0,45.7c0,0.6,0.1,1.1,0.2,1.8 c10.8,0,21.4,0,32.3,0c0-20.8,0-41.6,0-62.8c9.5,1,18.6,1.9,27.8,2.8c-0.8,4.5-4.2,5.3-7.6,6.3c0,17.8,0,35.6,0,53.6 c11.5,0,22.9,0,34.6,0c0-19.6,0-74.3,0-94.2c9.5,1,18.7,1.9,28,2.8c-0.7,3.6-3,5-5.9,5.6c-1.3,0.3-1.8,0.6-1.8,2 c0,15.8,0,66.7,0,82.5c0,0.4,0.1,0.8,0.2,1.5c2,0,4,0.1,6-0.1c0.7-0.1,1.5-0.9,2-1.6c3.5-4.6,6.9-9.3,10.5-14.2 c1.2,0.9,2.3,1.7,3.3,2.5c5.6,4.8,11.3,9.6,16.9,14.5c1.8,1.6,1.6,3-0.5,3.9c-1.4,0.6-3,0.9-4.6,0.9c-10.2,0.1-20.5,0-30.7,0 c-0.9,0-1.8,0-3,0c0,1.2,0,2.2,0,3.1c0,21.5,0,43,0.1,64.5c0,2.5-0.9,3.9-3,4.9c-5,2.5-10.4,3.5-16,3.4c-1.6,0-1.7-0.8-1.7-2.1 c0-4.3,0-8.6,0-13.1c-11.7,0-23,0-34.7,0c0,3.9-0.1,7.7,0,11.5c0.1,2.3-0.9,3.7-2.7,4.9c-4.4,2.7-11.2,4.2-16.9,3.5 c0-26.8,0-53.6,0-80.6c-11.1,0-21.8,0-32.7,0c0,35.7,0,71.4,0,107.4c0.9,0,1.8,0,2.7,0c33.5,0,118,0,151.5,0.1c1.9,0,3-0.6,4.1-2.1 c3.7-5,7.5-10,11.5-15.2c7.6,6.5,15.1,12.9,22.5,19.3c0.4,0.3,0.4,1.8,0.1,2c-1.2,0.8-2.5,1.5-3.9,2c-0.9,0.3-2,0.1-3,0.1 c-43.2,0-137.5,0-180.7-0.1c-2.3,0-3.8,0.5-4.9,2.7c-1.4,2.8-3.3,5.4-5.1,8.3c-7.1-4.4-14.1-8.8-21.3-13.3c1.3-1.2,2.2-2.4,3.5-3.1 c2.7-1.6,3.2-3.7,3.1-6.7C329.8,339.8,330,334.6,330,329.5c5.2-0.1,10.5-0.1,15.9-0.1c0-49.6,0-99,0-148.6c-5.3-0.5-10.4-1.1-16-1.6 c0,19.6,0,39,0,58.5c-11,0-21.8,0-32.8,0c0.6,2.1,1.1,3.9,1.6,5.9c10.4,0,20.7,0,31.2,0c0,1.2,0,2.2,0,3.2c0,26.6,0,53.2,0,79.7 C329.9,327.5,330,328.5,330,329.5z M128,265.3c0.8,0.6,1.4,1.1,2,1.6c0.3-0.2,0.6-0.3,0.7-0.5c0.7-0.6,1.4-1.2,2.1-1.8 c11-10,19.3-22,25.7-35.3c1.2-2.4,2.6-3.4,5.4-2.3c0,17.5,0,35.1,0,52.9c4.8,0.2,9.2-0.3,13.5-2c2.3-0.9,3.2-2.2,3.2-4.9 c-0.1-20.3-0.1-40.7,0-61c0-1,0-1.9,0-3.1c1.2,0,2.1,0,3.1,0c9.3,0,18.7,0,28-0.1c1.6,0,3.2-0.6,4.7-1.2c0.4-0.2,0.8-2,0.5-2.3 c-4.9-4.6-9.9-9-15-13.5c-2.7,3.6-5.1,6.9-7.6,10.2c-0.5,0.6-1.2,1.4-1.8,1.5c-3.9,0.1-7.8,0.1-11.7,0.1c0-7.5,0-14.6,0-22 c1,0,1.9,0,2.8,0c10.8,0,21.7,0,32.5-0.1c1.5,0,3.1-0.5,4.5-1.2c0.4-0.2,0.7-2,0.4-2.3c-5.3-4.8-10.6-9.5-16.1-14.3 c-2.8,3.8-5.3,7.4-7.9,10.8c-0.5,0.7-1.3,1.5-2,1.5c-4,0.1-7.9,0.1-12.3,0.1c0.5-0.7,0.6-0.9,0.8-1.2c5.9-7.5,11.8-15.1,17.8-22.5 c0.6-0.7,1.7-1.1,2.7-1.2c2.2-0.3,3.9-1,4.7-3.4c-6.1-2-12.1-3.9-18-5.8c6.5-0.5,13-0.4,19.5-0.6c1.6,0,3.2-0.6,4.7-1.3 c0.4-0.2,0.7-2,0.4-2.3c-5-4.6-10.2-9-15.5-13.7c-2.8,3.7-5.3,7-8,10.4c-0.5,0.6-1.2,1.4-1.8,1.5c-4,0.1-8,0.1-12.1,0.1 c3.6-2.3,5.6-5.2,5.4-9.4c-0.2-4.1-2.3-7.1-5.2-9.6c-5.5-4.8-12.3-6.9-19.3-8.4c-0.8-0.2-1.7,0.5-2.7,0.8c5,6.2,8.5,12.5,10.4,19.7 c0.8,2.9,1.4,5.6,4.7,6.8c-13.4,0-26.8,0-40.4,0c0.6,2,1,3.6,1.5,5.4c4,0,7.9,0,11.6,0c0.3,1,0.5,1.7,0.9,2.4 c4.1,8.5,7.5,17.3,8.3,26.8c0.1,0.9,0.8,2,1.5,2.6c5.2,4.1,11.7,1.5,12.7-5.1c0.7-4.5-0.7-8.6-3.1-12.3c-3.3-5-7.9-8.7-13-11.8 c-1.2-0.7-2.4-1.5-4.1-2.5c13.6,0,26.5,0,40.1,0c-3,10.9-6,21.6-8.8,32.3c-0.5,1.8-1.4,2.2-3.1,2.2c-14.7-0.1-29.5-0.1-44.2-0.1 c-0.9,0-1.7,0-2.9,0c0.6,2,1,3.7,1.5,5.6c11.6,0,23,0,34.5,0c0,7.4,0,14.5,0,21.9c-11,0-21.9,0-33,0c0.5,2,1,3.6,1.5,5.5 c10.5,0,21,0,31.5,0c0,4.6,0,8.9,0,13.5c-6.1-2.6-11.9-5.1-17.8-7.6C142.4,232.8,137.2,249.7,128,265.3z M278.1,109.7 c-10.5,5.9-20.6,11.4-30.5,17.2c-4.7,2.8-9.1,3.4-14.2,1c-3.5-1.7-7.4-2.6-11.4-4c0,1.4,0,2.4,0,3.4c-0.2,26.2-0.2,52.3-0.6,78.5 c-0.2,11.8-2,23.5-5.2,35c-3.8,13.7-9.9,26.1-19.4,37.1c0.5,0.4,0.9,0.6,1.3,1c0.4,0.4,0.9,0.7,1.3,1.1c0.8-0.6,1.5-1,2.2-1.5 c19.2-13.7,30-32.5,34.4-55.4c2.6-13.4,3-27,3-40.6c0-1.1,0-2.1,0-3.2c7.4,0,14.5,0,21.9,0c0,33.7,0,105.1,0,138.7 c5.2,0.4,9.8-0.3,14.3-2.5c2.1-1.1,2.9-2.5,2.9-4.9c-0.1-30.1-0.1-98.2,0-128.2c0-1,0-2,0-3.2c1.2,0,2.1,0,2.9,0 c5.2,0,10.3,0,15.5-0.1c2,0,3.8-0.5,4.5-3c-6.3-5.4-12.5-10.8-19-16.3c-3.1,4.2-6.1,8.1-8.9,12.1c-1.1,1.5-2.3,2.1-4.1,2 c-9-0.1-18-0.1-27-0.1c-0.9,0-1.8,0-2.8,0c0-12.9,0-25.5,0-37.4c14.9-3.5,29.6-6.9,44.2-10.4c2-0.5,3.8-0.8,5.8-0.2 c2.5,0.6,5.1,0.9,7.3-1.3C290.1,119.3,283.8,114.3,278.1,109.7z M402.6,297.8c11.6,0,23,0,34.4,0c0-18.2,0-36.2,0-54.2 c-11.5,0-22.9,0-34.4,0C402.6,261.7,402.6,279.7,402.6,297.8z M182.8,217.8c0.8,1.3,1.1,1.9,1.5,2.6c5.5,9.3,9.4,19.1,10.2,30 c0.1,0.8,0.7,1.9,1.4,2.4c5,3.8,11,1.7,12.6-4.6c1.7-6.4-0.9-11.8-4.6-16.7c-4.6-6.1-10.9-10.2-17.7-13.6 C185.4,217.5,184.3,217.8,182.8,217.8z"
		);
		}
		#logo:hover path[name="界"] {
		d: path(
		"M637.5,127.8c-0.7,0.9-1,1.8-1.6,2c-6.2,2.2-9.3,7-11.1,13c-0.2,0.6-0.4,1.1-0.6,1.6c0,0.1-0.1,0.1-0.4,0.3 c-13.1-4.5-25.3-10.9-36.8-20c-0.1,1.5-0.1,2.5-0.1,3.4c0,18.7,0,110.5,0,129.2c0,2.1-0.7,3.4-2.6,4.3c-4.3,2-8.8,2.9-13.7,2.6 c0-23.8,0-120.6,0-144.6c3.8,0.4,7.6,0.7,12,1.2c-1.3-1.3-2.2-2.2-3-3.2c-3.9-5-7.7-10-11.4-15.1c-0.9-1.3-1.7-1.9-3.4-1.9 c-4.3,0.1-8.7,0-13,0.1c-0.9,0-2.1,0.4-2.5,1c-5.1,7-11.2,13-18.1,18.2c-0.2,0.1-0.3,0.4-0.7,0.9c4.5,0.5,8.8,1,13.2,1.4 c-0.3,3.5-3.1,3.8-5.7,4.6c0,4.7,0.1,9.4,0,14.1c-0.2,12.8-4.3,23.8-14.2,32.3c-5.8,5-12.4,8.8-19.6,11.2 c-7.6,2.6-15.5,4.5-23.2,6.8c-1.7,0.5-2.4-0.1-2.8-1.5c6-2.7,12-5.1,17.7-8.1c10.9-5.7,19.6-13.6,23.3-25.8 c1.1-3.5,1.8-7.1,1.9-10.8c0.3-6.1,0.1-12.1,0.1-18.6c-15,8.9-31.2,14.7-48.3,18.8c-0.4-0.9-0.8-1.8-1.3-2.8 c22.7-8.8,42.3-21.4,56.7-41.9c-5.5,0-10.5,0-15.8,0c0.9,7.1-4.9,7.3-9.3,8.7c-2.3,0.7-4.9,0.6-7.5,0.8c0-27,0-53.6,0-80.4 c0.7,0.2,1.3,0.3,1.9,0.6c4.7,1.9,9.4,3.9,14.1,5.8c1.1,0.4,2.4,0.8,3.6,0.8c25.8,0,51.7,0.1,77.5,0c1.2,0,2.7-0.8,3.6-1.6 c2.4-2.2,4.5-4.7,6.9-7.3c5.9,4.4,11.7,8.8,18.1,13.6c-2.8,1.4-5.1,2.6-7.8,4c0,0.5,0,1.4,0,2.4c0,17.8,0,35.7,0.1,53.5 c0,2-0.7,3.1-2.4,3.8c-4.5,2-9.2,3.2-14.5,2.9c0-2.6,0-4.9,0-7.4c-8.3,0-16.2,0-24.1,0C590.7,117.5,613.5,123.3,637.5,127.8z  M596.5,70.9c-11.6,0-23,0-34.4,0c0,8.2,0,16.3,0,24.4c11.5,0,22.9,0,34.4,0C596.5,87.1,596.5,79.1,596.5,70.9z M512.6,70.8 c0,8.3,0,16.3,0,24.5c11,0,21.8,0,32.8,0c0-8.2,0-16.3,0-24.5C534.4,70.8,523.6,70.8,512.6,70.8z M596.4,42.2c-11.5,0-23,0-34.3,0 c0,7.9,0,15.6,0,23.3c11.5,0,22.9,0,34.3,0C596.4,57.7,596.4,50,596.4,42.2z M545.4,42.2c-11,0-21.9,0-32.8,0c0,7.9,0,15.6,0,23.3 c11,0,21.9,0,32.8,0C545.4,57.6,545.4,50,545.4,42.2z"
		);
		}
		#logo:hover path[name="大門"] {
		d: path(
		"M913.6,89.2c0-8.4,0-16.8,0-25.3c96-20.4,191.8-40.8,287.7-61.2c0,97.2,0,194.4,0,291.7c-95.9,20.4-191.7,40.7-287.7,61.2 c0-57.7,0-115.3,0-173.3c9.1,6.8,18.5,12.7,29.4,16.6c0.2-0.7,0.5-1.4,0.7-2c2-7.9,6.8-13.4,14.2-17c0.9-0.4,1.6-1.4,2.5-2.1 c-0.7-0.5-1.3-1.2-2.2-1.4c-13.7-3.1-26.6-7.8-38.1-15c-2.1-1.4-4.1-2.8-6.5-4.5c0,8.3,0,16.1,0,24.4c-10.9-9.2-18.7-23.7-24.5-37.8 c-5.7-14.1-9.3-28.8-11.6-44.2c-1.3,6.7-2.4,13-3.8,19.2c-6.9,29.6-23.7,52.3-48.8,69c-11.2,7.5-23.1,13.5-35.6,18.6 c-0.4-0.5-0.8-0.9-1.1-1.4c-0.3-0.4-0.6-0.8-1.1-1.6c42.5-23.3,68.1-57.9,71.6-107.4c-22.7,0-45.3,0-68.1,0 c-0.6-1.7-1.1-3.3-1.7-5.3c23.5,0,46.8,0,70.7,0c0.4-18.2,0.8-54.1,1.2-72.2c8.4,0.8,16.9,1.6,25.6,2.5c-0.2,2.9-2.2,4-4.5,4.9 c-0.7,0.3-1.7,1.1-1.7,1.8c-0.6,14.6-1.2,47.3-1.7,62c0,0.2,0.1,0.5,0.2,0.8c0.6,0.1,1.3,0.2,1.9,0.2c10.3,0,20.7,1.9,31-0.3 C912.2,89.8,912.9,89.4,913.6,89.2c-0.1,1.7-0.2,3.5-0.3,5.4c-0.9,0.3-1.7,0.8-2.6,1c-9,1.9-18,0.1-27,0.1c-0.9,0-1.8,0-2.7,0 c0.1,16.4,18.3,52.9,32.4,60.3c0-0.6,0.1-1,0.1-1.5c0-19.3,0-38.7,0-58c0-0.7-0.2-1.3-0.2-2c0.9,0,1.7,0.1,2.6-0.1 c3.7-0.8,7.3-1.8,11-2.5c8.7-1.8,17.5-3.7,26.2-5.6c2.3-0.5,4.4-1.2,5.5-4.3c-7.3-4.2-14.4-8.5-21.7-12.8c-2.1,3-3.9,5.8-5.8,8.5 c-2.1,3-3.9,7-6.7,8.9s-6.7,1.7-10.1,2.4C914.1,89.2,913.8,89.2,913.6,89.2z M1142.6,75.8c-2.4,3.4-4.8,6.5-7,9.8 c-1.1,1.5-2.2,2.2-3.8,2.5c-5.6,1.1-11.2,2-16.7,3.6c-7.2,2-13.8,2-20.2,0.2c-2.4-0.7-5-1-7.5-1.5c0,25.5,0,50.6,0,76.4 c3.9-1.7,7.6-3.1,11.2-4.9c3.4-1.6,6.2-3.9,5.4-8.1c0-0.2,0.2-0.4,0.3-0.8c10.6-2.3,21.2-4.5,31.8-6.8c0,0.6,0.1,0.9,0.1,1.2 c0,24,0,48,0,72c0,3.4-1.2,5-4.7,5.7c-4.8,1-9.7,1.7-14.5,2.5c-5.2,0.8-10.4,1.6-15.7,2.4c0,1,0,1.8,0,2c5.4,0.5,10.6,0.6,15.6,1.4 c5.4,0.8,8.5,4.2,9.5,9.6c0.2,1.1,0.5,2.1,0.8,3.7c5.4-2.4,10.7-4.6,15.8-7.4c6-3.3,9.6-8.4,10.4-15c0.3-2.6,0.4-5.1,0.4-7.6 c0-40.6,0-81.1,0-121.7c0-1.1,0-2.1,0-2.9c2.7-1.9,5.2-3.7,8.1-5.7C1155,82.8,1148.9,79.4,1142.6,75.8z M1023.6,170.3 c0,3.5,0,6.9,0,10.2c5-0.8,9.3-3,13.6-5.7c2-1.3,2.8-2.7,2.8-5c-0.1-17.4,0-34.8-0.1-52.2c0-1.6,0.3-2.6,2.1-3.4 c1.6-0.7,3-2.1,5-3.6c-6.1-3.3-11.7-6.3-17.4-9.4c-2.4,3.1-4.5,6-6.8,8.7c-0.7,0.8-1.9,1.7-3,1.9c-4.3,1-8.7,1.5-13,2.9 c-9.4,2.8-18.1,2.9-26.3-0.1c-1.7-0.6-3.6-0.8-5.4-1.3c0,55.3,0,110.2,0,165.2c5.2-0.8,10-2.5,14.3-6.1c2.1-1.7,3-3.6,3-6.1 c-0.1-28.8,0-57.6,0-86.5c0-1,0-2,0-3.1C1002.9,174.7,1013.1,172.5,1023.6,170.3z"
		);
		}

		#logo:hover .window {
		opacity: 0;
		}

		svg path {
		transition: 0.4s ease-out;
		}
		svg .window {
		transition: 0.2s ease-out;
		}
	</style>
	<path name="大門" d="M913.6,89.9c0-8.4,0-16.8,0-25.3c96,0,191.8,0,287.7,0c0,97.2,0,194.4,0,291.7c-95.9,0-191.7,0-287.7,0
	c0-57.7,0-115.3,0-173.3c9.1,8.7,18.5,16.6,29.4,22.8c0.2-0.7,0.5-1.3,0.7-1.9c2-7.5,6.8-12,14.2-14c0.9-0.2,1.6-1.1,2.5-1.6
	c-0.7-0.6-1.3-1.5-2.2-1.9c-13.7-6-26.6-13.5-38.1-23.1c-2.1-1.8-4.1-3.7-6.5-5.9c0,8.3,0,16.1,0,24.4
	c-10.9-11.5-18.7-24.4-24.5-38.5c-5.7-14.1-9.3-28.8-11.6-44.2c-1.3,6.7-2.4,13-3.8,19.2c-6.9,29.6-23.7,52.3-48.8,69
	c-11.2,7.5-23.1,13.5-35.6,18.6c-0.4-0.5-0.8-0.9-1.1-1.4c-0.3-0.4-0.6-0.8-1.1-1.6c42.5-23.3,68.1-57.9,71.6-107.4
	c-22.7,0-45.3,0-68.1,0c-0.6-1.7-1.1-3.3-1.7-5.3c23.5,0,46.8,0,70.7,0c0.4-18.2,0.8-36.1,1.2-54.2c8.4,0.8,16.9,1.6,25.6,2.5
	c-0.2,2.9-2.2,4-4.5,4.9c-0.7,0.3-1.7,1.1-1.7,1.8c-0.6,14.6-1.2,29.3-1.7,44c0,0.2,0.1,0.5,0.2,0.8c0.6,0.1,1.3,0.2,1.9,0.2
	c10.3,0,20.7,0,31,0C912.2,90.2,912.9,90,913.6,89.9c-0.1,1.7-0.2,3.5-0.3,5.3c-0.9,0.1-1.7,0.4-2.6,0.4c-9,0-18,0-27,0
	c-0.9,0-1.8,0-2.7,0c0.1,16.4,18.3,50.6,32.4,61c0-0.6,0.1-1,0.1-1.5c0-19.3,0-38.7,0-58c0-0.7-0.2-1.3-0.2-2
	c0.9,0.2,1.7,0.5,2.6,0.5c3.7,0,7.3-0.2,11-0.2c8.7,0,17.5,0,26.2,0c2.3,0,4.4-0.3,5.5-3.1c-7.3-5.8-14.4-11.6-21.7-17.4
	c-2.1,2.6-3.9,5-5.8,7.3c-2.1,2.6-3.9,6.2-6.7,7.5s-6.7,0.3-10.1,0.3C914.1,90,913.8,90,913.6,89.9z M1114.6,125.3
	c-2.4,2.9-4.8,5.5-7,8.3c-1.1,1.3-2.2,1.7-3.8,1.7c-5.6-0.1-11.2-0.4-16.7,0.1c-7.2,0.5-13.8-0.9-20.2-4.1c-2.4-1.2-5-2.1-7.5-3.1
	c0,25.5,0,50.6,0,76.4c3.9-0.9,7.6-1.5,11.2-2.5c3.4-0.9,6.2-2.6,5.4-7c0-0.2,0.2-0.4,0.3-0.7c10.6,0,21.2,0,31.8,0
	c0,0.6,0.1,0.9,0.1,1.2c0,24,0,48,0,72c0,3.4-1.2,4.7-4.7,4.7c-4.8,0-9.7-0.4-14.5-0.6c-5.2-0.3-10.4-0.6-15.7-0.9c0,1,0,1.8,0,2
	c5.4,1.6,10.6,2.9,15.6,4.7c5.4,1.9,8.5,6,9.5,11.6c0.2,1.1,0.5,2.2,0.8,3.9c5.4-1.3,10.7-2.3,15.8-4c6-2,9.6-6.4,10.4-12.8
	c0.3-2.5,0.4-5,0.4-7.5c0-40.6,0-81.1,0-121.7c0-1.1,0-2.1,0-2.9c2.7-1.3,5.2-2.6,8.1-4C1127,134.9,1120.9,130.2,1114.6,125.3z
	 M1023.6,194.4c0,3.5,0,6.9,0,10.2c5,0.3,9.3-1,13.6-2.8c2-0.9,2.8-2.1,2.8-4.4c-0.1-17.4,0-34.8-0.1-52.2c0-1.6,0.3-2.5,2.1-3
	c1.6-0.4,3-1.5,5-2.5c-6.1-4.6-11.7-8.8-17.4-13.1c-2.4,2.6-4.5,5-6.8,7.3c-0.7,0.7-1.9,1.3-3,1.3c-4.3,0.1-8.7-0.3-13,0.1
	c-9.4,0.8-18.1-0.9-26.3-5.7c-1.7-1-3.6-1.6-5.4-2.4c0,55.3,0,110.2,0,165.2c5.2,0.3,10-0.4,14.3-3.1c2.1-1.3,3-3,3-5.5
	c-0.1-28.8,0-57.6,0-86.5c0-1,0-2,0-3.1C1002.9,194.4,1013.1,194.4,1023.6,194.4z" />
	<path name="新世" d="M330,329.5c-81.7,0-163.3,0-245,0c-1.1,0-2.1,0-3.4,0c0-88,0-175.9,0-263.9c88.1,0,176,0,264.2,0c0,38.2,0,76.4,0,114.9
	c4,0.5,7.9,0.9,11.9,1.4c-0.5,3.5-3,4.8-5.8,5.5c-1.4,0.4-1.9,0.9-1.9,2.3c0,15.2,0,30.5,0,45.7c0,0.6,0.1,1.1,0.2,1.8
	c10.8,0,21.4,0,32.3,0c0-20.8,0-41.6,0-62.8c9.5,1,18.6,1.9,27.8,2.8c-0.8,4.5-4.2,5.3-7.6,6.3c0,17.8,0,35.6,0,53.6
	c11.5,0,22.9,0,34.6,0c0-19.6,0-39.3,0-59.2c9.5,1,18.7,1.9,28,2.8c-0.7,3.6-3,5-5.9,5.6c-1.3,0.3-1.8,0.6-1.8,2
	c0,15.8,0,31.7,0,47.5c0,0.4,0.1,0.8,0.2,1.5c2,0,4,0.1,6-0.1c0.7-0.1,1.5-0.9,2-1.6c3.5-4.6,6.9-9.3,10.5-14.2
	c1.2,0.9,2.3,1.7,3.3,2.5c5.6,4.8,11.3,9.6,16.9,14.5c1.8,1.6,1.6,3-0.5,3.9c-1.4,0.6-3,0.9-4.6,0.9c-10.2,0.1-20.5,0-30.7,0
	c-0.9,0-1.8,0-3,0c0,1.2,0,2.2,0,3.1c0,21.5,0,43,0.1,64.5c0,2.5-0.9,3.9-3,4.9c-5,2.5-10.4,3.5-16,3.4c-1.6,0-1.7-0.8-1.7-2.1
	c0-4.3,0-8.6,0-13.1c-11.7,0-23,0-34.7,0c0,3.9-0.1,7.7,0,11.5c0.1,2.3-0.9,3.7-2.7,4.9c-4.4,2.7-11.2,4.2-16.9,3.5
	c0-26.8,0-53.6,0-80.6c-11.1,0-21.8,0-32.7,0c0,35.7,0,71.4,0,107.4c0.9,0,1.8,0,2.7,0c33.5,0,67,0,100.5,0.1c1.9,0,3-0.6,4.1-2.1
	c3.7-5,7.5-10,11.5-15.2c7.6,6.5,15.1,12.9,22.5,19.3c0.4,0.3,0.4,1.8,0.1,2c-1.2,0.8-2.5,1.5-3.9,2c-0.9,0.3-2,0.1-3,0.1
	c-43.2,0-86.5,0-129.7-0.1c-2.3,0-3.8,0.5-4.9,2.7c-1.4,2.8-3.3,5.4-5.1,8.3c-7.1-4.4-14.1-8.8-21.3-13.3c1.3-1.2,2.2-2.4,3.5-3.1
	c2.7-1.6,3.2-3.7,3.1-6.7C329.8,339.8,330,334.6,330,329.5c5.2-0.1,10.5-0.1,15.9-0.1c0-49.6,0-99,0-148.6c-5.3-0.5-10.4-1.1-16-1.6
	c0,19.6,0,39,0,58.5c-11,0-21.8,0-32.8,0c0.6,2.1,1.1,3.9,1.6,5.9c10.4,0,20.7,0,31.2,0c0,1.2,0,2.2,0,3.2c0,26.6,0,53.2,0,79.7
	C329.9,327.5,330,328.5,330,329.5z M128,265.3c0.8,0.6,1.4,1.1,2,1.6c0.3-0.2,0.6-0.3,0.7-0.5c0.7-0.6,1.4-1.2,2.1-1.8
	c11-10,19.3-22,25.7-35.3c1.2-2.4,2.6-3.4,5.4-2.3c0,17.5,0,35.1,0,52.9c4.8,0.2,9.2-0.3,13.5-2c2.3-0.9,3.2-2.2,3.2-4.9
	c-0.1-20.3-0.1-40.7,0-61c0-1,0-1.9,0-3.1c1.2,0,2.1,0,3.1,0c9.3,0,18.7,0,28-0.1c1.6,0,3.2-0.6,4.7-1.2c0.4-0.2,0.8-2,0.5-2.3
	c-4.9-4.6-9.9-9-15-13.5c-2.7,3.6-5.1,6.9-7.6,10.2c-0.5,0.6-1.2,1.4-1.8,1.5c-3.9,0.1-7.8,0.1-11.7,0.1c0-7.5,0-14.6,0-22
	c1,0,1.9,0,2.8,0c10.8,0,21.7,0,32.5-0.1c1.5,0,3.1-0.5,4.5-1.2c0.4-0.2,0.7-2,0.4-2.3c-5.3-4.8-10.6-9.5-16.1-14.3
	c-2.8,3.8-5.3,7.4-7.9,10.8c-0.5,0.7-1.3,1.5-2,1.5c-4,0.1-7.9,0.1-12.3,0.1c0.5-0.7,0.6-0.9,0.8-1.2c5.9-7.5,11.8-15.1,17.8-22.5
	c0.6-0.7,1.7-1.1,2.7-1.2c2.2-0.3,3.9-1,4.7-3.4c-6.1-2-12.1-3.9-18-5.8c6.5-0.5,13-0.4,19.5-0.6c1.6,0,3.2-0.6,4.7-1.3
	c0.4-0.2,0.7-2,0.4-2.3c-5-4.6-10.2-9-15.5-13.7c-2.8,3.7-5.3,7-8,10.4c-0.5,0.6-1.2,1.4-1.8,1.5c-4,0.1-8,0.1-12.1,0.1
	c3.6-2.3,5.6-5.2,5.4-9.4c-0.2-4.1-2.3-7.1-5.2-9.6c-5.5-4.8-12.3-6.9-19.3-8.4c-0.8-0.2-1.7,0.5-2.7,0.8c5,6.2,8.5,12.5,10.4,19.7
	c0.8,2.9,1.4,5.6,4.7,6.8c-13.4,0-26.8,0-40.4,0c0.6,2,1,3.6,1.5,5.4c4,0,7.9,0,11.6,0c0.3,1,0.5,1.7,0.9,2.4
	c4.1,8.5,7.5,17.3,8.3,26.8c0.1,0.9,0.8,2,1.5,2.6c5.2,4.1,11.7,1.5,12.7-5.1c0.7-4.5-0.7-8.6-3.1-12.3c-3.3-5-7.9-8.7-13-11.8
	c-1.2-0.7-2.4-1.5-4.1-2.5c13.6,0,26.5,0,40.1,0c-3,10.9-6,21.6-8.8,32.3c-0.5,1.8-1.4,2.2-3.1,2.2c-14.7-0.1-29.5-0.1-44.2-0.1
	c-0.9,0-1.7,0-2.9,0c0.6,2,1,3.7,1.5,5.6c11.6,0,23,0,34.5,0c0,7.4,0,14.5,0,21.9c-11,0-21.9,0-33,0c0.5,2,1,3.6,1.5,5.5
	c10.5,0,21,0,31.5,0c0,4.6,0,8.9,0,13.5c-6.1-2.6-11.9-5.1-17.8-7.6C142.4,232.8,137.2,249.7,128,265.3z M278.1,109.7
	c-10.5,5.9-20.6,11.4-30.5,17.2c-4.7,2.8-9.1,3.4-14.2,1c-3.5-1.7-7.4-2.6-11.4-4c0,1.4,0,2.4,0,3.4c-0.2,26.2-0.2,52.3-0.6,78.5
	c-0.2,11.8-2,23.5-5.2,35c-3.8,13.7-9.9,26.1-19.4,37.1c0.5,0.4,0.9,0.6,1.3,1c0.4,0.4,0.9,0.7,1.3,1.1c0.8-0.6,1.5-1,2.2-1.5
	c19.2-13.7,30-32.5,34.4-55.4c2.6-13.4,3-27,3-40.6c0-1.1,0-2.1,0-3.2c7.4,0,14.5,0,21.9,0c0,33.7,0,67.1,0,100.7
	c5.2,0.4,9.8-0.3,14.3-2.5c2.1-1.1,2.9-2.5,2.9-4.9c-0.1-30.1-0.1-60.2,0-90.2c0-1,0-2,0-3.2c1.2,0,2.1,0,2.9,0
	c5.2,0,10.3,0,15.5-0.1c2,0,3.8-0.5,4.5-3c-6.3-5.4-12.5-10.8-19-16.3c-3.1,4.2-6.1,8.1-8.9,12.1c-1.1,1.5-2.3,2.1-4.1,2
	c-9-0.1-18-0.1-27-0.1c-0.9,0-1.8,0-2.8,0c0-12.9,0-25.5,0-37.4c14.9-3.5,29.6-6.9,44.2-10.4c2-0.5,3.8-0.8,5.8-0.2
	c2.5,0.6,5.1,0.9,7.3-1.3C290.1,119.3,283.8,114.3,278.1,109.7z M402.6,297.8c11.6,0,23,0,34.4,0c0-18.2,0-36.2,0-54.2
	c-11.5,0-22.9,0-34.4,0C402.6,261.7,402.6,279.7,402.6,297.8z M182.8,217.8c0.8,1.3,1.1,1.9,1.5,2.6c5.5,9.3,9.4,19.1,10.2,30
	c0.1,0.8,0.7,1.9,1.4,2.4c5,3.8,11,1.7,12.6-4.6c1.7-6.4-0.9-11.8-4.6-16.7c-4.6-6.1-10.9-10.2-17.7-13.6
	C185.4,217.5,184.3,217.8,182.8,217.8z" />
	<path name="界" d="M637.5,127.8c-0.7,0.9-1,1.8-1.6,2c-6.2,2.2-9.3,7-11.1,13c-0.2,0.6-0.4,1.1-0.6,1.6c0,0.1-0.1,0.1-0.4,0.3
	c-13.1-4.5-25.3-10.9-36.8-20c-0.1,1.5-0.1,2.5-0.1,3.4c0,18.7,0,37.5,0,56.2c0,2.1-0.7,3.4-2.6,4.3c-4.3,2-8.8,2.9-13.7,2.6
	c0-23.8,0-47.6,0-71.6c3.8,0.4,7.6,0.7,12,1.2c-1.3-1.3-2.2-2.2-3-3.2c-3.9-5-7.7-10-11.4-15.1c-0.9-1.3-1.7-1.9-3.4-1.9
	c-4.3,0.1-8.7,0-13,0.1c-0.9,0-2.1,0.4-2.5,1c-5.1,7-11.2,13-18.1,18.2c-0.2,0.1-0.3,0.4-0.7,0.9c4.5,0.5,8.8,1,13.2,1.4
	c-0.3,3.5-3.1,3.8-5.7,4.6c0,4.7,0.1,9.4,0,14.1c-0.2,12.8-4.3,23.8-14.2,32.3c-5.8,5-12.4,8.8-19.6,11.2
	c-7.6,2.6-15.5,4.5-23.2,6.8c-1.7,0.5-2.4-0.1-2.8-1.5c6-2.7,12-5.1,17.7-8.1c10.9-5.7,19.6-13.6,23.3-25.8
	c1.1-3.5,1.8-7.1,1.9-10.8c0.3-6.1,0.1-12.1,0.1-18.6c-15,8.9-31.2,14.7-48.3,18.8c-0.4-0.9-0.8-1.8-1.3-2.8
	c22.7-8.8,42.3-21.4,56.7-41.9c-5.5,0-10.5,0-15.8,0c0.9,7.1-4.9,7.3-9.3,8.7c-2.3,0.7-4.9,0.6-7.5,0.8c0-27,0-53.6,0-80.4
	c0.7,0.2,1.3,0.3,1.9,0.6c4.7,1.9,9.4,3.9,14.1,5.8c1.1,0.4,2.4,0.8,3.6,0.8c25.8,0,51.7,0.1,77.5,0c1.2,0,2.7-0.8,3.6-1.6
	c2.4-2.2,4.5-4.7,6.9-7.3c5.9,4.4,11.7,8.8,18.1,13.6c-2.8,1.4-5.1,2.6-7.8,4c0,0.5,0,1.4,0,2.4c0,17.8,0,35.7,0.1,53.5
	c0,2-0.7,3.1-2.4,3.8c-4.5,2-9.2,3.2-14.5,2.9c0-2.6,0-4.9,0-7.4c-8.3,0-16.2,0-24.1,0C590.7,117.5,613.5,123.3,637.5,127.8z
	 M596.5,70.9c-11.6,0-23,0-34.4,0c0,8.2,0,16.3,0,24.4c11.5,0,22.9,0,34.4,0C596.5,87.1,596.5,79.1,596.5,70.9z M512.6,70.8
	c0,8.3,0,16.3,0,24.5c11,0,21.8,0,32.8,0c0-8.2,0-16.3,0-24.5C534.4,70.8,523.6,70.8,512.6,70.8z M596.4,42.2c-11.5,0-23,0-34.3,0
	c0,7.9,0,15.6,0,23.3c11.5,0,22.9,0,34.3,0C596.4,57.7,596.4,50,596.4,42.2z M545.4,42.2c-11,0-21.9,0-32.8,0c0,7.9,0,15.6,0,23.3
	c11,0,21.9,0,32.8,0C545.4,57.6,545.4,50,545.4,42.2z" />
	<path name="白" d="M671.9,282.9c0-4.6,0-8.9,0-13.4c-10.5,0-20.8,0-31.4,0c0,3.9-0.1,7.8,0,11.7c0.1,2-0.7,3.3-2.3,4.3c-4,2.5-8.2,3.4-13,2.9
	c0-44.2,0-88.5,0-133c4,1.8,8,3.6,12,5.4c1.3,0.6,2.5,1.3,3.9,1.7c2.7,0.9,3.5,0.3,4-2.5c1.5-9.9,3.1-19.9,4.7-30.1
	c8.1,2,16.1,3.9,24.2,5.9c-0.9,2.9-3,3.6-5.4,4.1c-0.8,0.2-1.8,0.5-2.2,1.1c-4.8,7-9.5,14.1-14.3,21.1c-0.1,0.1,0,0.3-0.1,0.7
	c5.8,0,11.6,0,17.4-0.1c0.7,0,1.4-0.8,1.9-1.3c2.3-2.5,4.5-5.1,6.9-7.9c5.7,4.5,11.2,8.8,17.2,13.6c-1.8,1-3.2,2.2-4.7,2.5
	c-2.6,0.6-3,2-3,4.4c0.1,33.4,0,66.8,0.1,100.2c0,3.4-1.2,5-4.1,6.2C680.1,282.1,676.3,283.2,671.9,282.9z M640.6,217.6
	c0,15.6,0,31,0,46.3c10.4,0,20.7,0,31.1,0c0-15.5,0-30.9,0-46.3C661.3,217.6,651.1,217.6,640.6,217.6z M640.6,212
	c0.5,0.1,0.7,0.2,0.9,0.2c9.5,0,19,0,28.5,0.1c1.6,0,1.9-0.7,1.9-2.1c0-13.4,0-26.8,0-40.2c0-0.6-0.1-1.1-0.1-1.7
	c-10.5,0-20.8,0-31.2,0C640.6,182.9,640.6,197.4,640.6,212z" />
	<path name="勹" d="M737.7,294.6c-0.5-10.6-2.3-13.5-13.9-17.1c-2.1-0.6-4.2-1.2-6.3-1.5c-1.9-0.3-2.4-1.2-1.5-3.1c5.8,0.4,11.5,0.9,17.3,1.3
	c2.8,0.2,5.7,0.3,8.5,0.3c3.8,0.1,6.6-1.7,7.7-5.2c1.6-5.3,3.1-10.7,3.8-16.2c3.4-28,3.7-56.2,4.3-84.3c0-0.2-0.1-0.3-0.2-0.8
	c-0.7,0-1.5-0.1-2.3-0.1c-10.8,0-21.7,0-32.5,0c-1.8,0-2.7,0.6-3.5,2.1c-7,12.6-15.4,24.1-25.9,34c-0.4,0.3-0.7,0.7-1.2,1.1
	c-0.4-0.2-0.9-0.4-1.3-0.6c-0.4-0.2-0.7-0.5-1.1-0.8c12.6-23,20.5-47.6,26-73.3c7.9,2.3,15.6,4.6,23.4,6.9c-0.7,2.7-2.8,3.2-4.9,3.8
	c-0.7,0.2-1.7,0.6-1.9,1.1c-2.9,6.8-5.7,13.6-8.7,20.7c0.6,0.1,1.3,0.2,2,0.2c9.4,0,18.8,0.1,28.2-0.1c1.2,0,2.5-0.7,3.4-1.5
	c2.8-2.7,5.4-5.6,8.3-8.6c5.5,4.8,10.9,9.6,16.9,14.8c-2.4,1-4.2,2-6.2,2.4c-1.4,0.4-1.8,0.9-1.9,2.3c-0.3,11-0.5,22-0.9,33
	c-0.7,19.2-1.4,38.5-4.5,57.5c-0.8,5.1-2.1,10.1-3.7,15c-3.2,9.8-10.7,14.7-20.5,16.3C742.5,294.3,740.2,294.4,737.7,294.6z" />
	<path name="丶" d="M704.2,199.5c1.3-0.1,2.1-0.5,2.7-0.3c10,3.7,19.4,8.4,26.2,17.1c3.3,4.2,5.4,9,4.9,14.5c-0.7,7.8-7.9,11.3-14.3,7
	c-0.7-0.5-1.5-1.3-1.6-2c-2.2-12.4-8.1-22.9-15.3-32.9C706.1,202,705.4,201.1,704.2,199.5z" />
	<path d="M1107.8,167.2c0,7.3,0,14.3,0,21.5c-10.7,0-21.2,0-31.9,0c0-7.2,0-14.3,0-21.5C1086.5,167.2,1097.1,167.2,1107.8,167.2z" />
	<path d="M1107.8,161.4c-10.7,0-21.2,0-31.9,0c0-6.9,0-13.7,0-20.6c10.7,0,21.2,0,31.9,0C1107.8,147.6,1107.8,154.4,1107.8,161.4z" />
	<path d="M992.6,167.1c10.4,0,20.5,0,30.8,0c0,7.2,0,14.3,0,21.6c-10.3,0-20.5,0-30.8,0C992.6,181.5,992.6,174.4,992.6,167.1z" />
	<path d="M992.6,161.4c0-6.9,0-13.6,0-20.5c10.2,0,20.4,0,30.7,0c0,6.8,0,13.5,0,20.5C1013.2,161.4,1003,161.4,992.6,161.4z" />
</svg>
