<?xml version="1.0" encoding="utf-8"?>
<svg version="1.1" id="syncthing-venn" xmlns="http://www.w3.org/2000/svg" xmlns:xlink="http://www.w3.org/1999/xlink" x="0px" y="0px"
 width="556.68px" height="360px" viewBox="0 0 556.68 360" style="enable-background:new 0 0 556.68 360;" xml:space="preserve">
<style type="text/css">
.st0{fill-rule:evenodd;clip-rule:evenodd;fill:#C6EBA9;}
.st1{clip-path:url(#SVGID_2_);}
.st2{clip-path:url(#SVGID_4_);}
.st3{clip-path:url(#SVGID_6_);}
.st4{clip-path:url(#SVGID_8_);}
.st5{clip-path:url(#SVGID_10_);}
.st6{clip-path:url(#SVGID_12_);}
.st7{clip-path:url(#SVGID_14_);}
.st8{clip-path:url(#SVGID_16_);}
.st9{clip-path:url(#SVGID_18_);}
.st10{clip-path:url(#SVGID_20_);}
.st11{clip-path:url(#SVGID_22_);}
.st12{clip-path:url(#SVGID_24_);}
.st13{clip-path:url(#SVGID_26_);}
.st14{clip-path:url(#SVGID_28_);}
.st15{clip-path:url(#SVGID_30_);}
.st16{clip-path:url(#SVGID_32_);}
.st17{clip-path:url(#SVGID_34_);}
.st18{clip-path:url(#SVGID_36_);}
.st19{clip-path:url(#SVGID_38_);}
.st20{clip-path:url(#SVGID_40_);fill-rule:evenodd;clip-rule:evenodd;fill:#C5D1EF;}
.st21{clip-path:url(#SVGID_40_);}
.st22{clip-path:url(#SVGID_42_);}
.st23{clip-path:url(#SVGID_44_);}
.st24{clip-path:url(#SVGID_46_);}
.st25{clip-path:url(#SVGID_48_);}
.st26{clip-path:url(#SVGID_50_);}
.st27{clip-path:url(#SVGID_52_);}
.st28{clip-path:url(#SVGID_54_);}
.st29{clip-path:url(#SVGID_56_);}
.st30{clip-path:url(#SVGID_58_);}
.st31{clip-path:url(#SVGID_60_);}
.st32{clip-path:url(#SVGID_62_);}
.st33{clip-path:url(#SVGID_64_);}
.st34{clip-path:url(#SVGID_66_);}
.st35{clip-path:url(#SVGID_68_);}
.st36{clip-path:url(#SVGID_70_);}
.st37{clip-path:url(#SVGID_72_);}
</style>
<g>
<path class="st0" d="M3,130.361C3,62.231,58.23,7,126.36,7s123.36,55.23,123.36,123.36c0,68.13-55.23,123.36-123.36,123.36
S3,198.49,3,130.361L3,130.361z"/>
<g>
<defs><rect id="SVGID_1_" x="3" y="7" width="556.68" height="360"/></defs><clipPath id="SVGID_2_"><use xlink:href="#SVGID_1_" style="overflow:visible;"/>
</clipPath>
<g class="st1">
<path d="M70.371,89.411c-0.466,0-0.914-0.065-1.342-0.196c-0.429-0.13-0.797-0.34-1.104-0.629s-0.545-0.633-0.713-1.035
c-0.168-0.4-0.285-0.825-0.35-1.272c-0.065-0.447-0.084-0.899-0.056-1.356c0.028-0.457,0.079-0.909,0.154-1.356l1.091-6.458
H65.59v-2.46h2.852l1.007-6.012h2.824l-0.979,6.012h4.669v2.46h-5.089l-1.146,6.85c-0.019,0.206-0.042,0.41-0.07,0.615
s-0.042,0.41-0.042,0.615s0.019,0.41,0.056,0.615c0.037,0.206,0.098,0.392,0.182,0.56c0.084,0.167,0.205,0.307,0.363,0.419
c0.158,0.112,0.34,0.168,0.545,0.168c0.205,0,0.405-0.046,0.601-0.14s0.364-0.224,0.503-0.392s0.256-0.345,0.35-0.531
c0.093-0.186,0.177-0.373,0.251-0.559c0.074-0.186,0.135-0.377,0.182-0.573c0.046-0.196,0.088-0.396,0.126-0.601
c0-0.019,0.004-0.042,0.014-0.07c0.009-0.028,0.014-0.051,0.014-0.07H75.6c0,0.037-0.005,0.079-0.014,0.125
c-0.01,0.047-0.014,0.089-0.014,0.126c-0.075,0.429-0.182,0.853-0.321,1.272c-0.14,0.419-0.317,0.825-0.531,1.216
c-0.215,0.392-0.476,0.765-0.783,1.119s-0.657,0.648-1.048,0.88c-0.392,0.233-0.802,0.401-1.23,0.503
C71.229,89.359,70.8,89.411,70.371,89.411z"/>
</g>
</g>
<g>
<defs>
<polygon id="SVGID_3_" points="3,367 559.68,367 559.68,7 3,7 3,367 "/>
</defs>
<clipPath id="SVGID_4_">
<use xlink:href="#SVGID_3_" style="overflow:visible;"/>
</clipPath>
<g class="st2">
<defs>
<rect id="SVGID_5_" x="3" y="7" width="556.68" height="360"/>
</defs>
<clipPath id="SVGID_6_">
<use xlink:href="#SVGID_5_" style="overflow:visible;"/>
</clipPath>
<g class="st3">
<path d="M79.881,89.103c-0.559-0.205-1.002-0.541-1.328-1.006c-0.326-0.466-0.531-0.997-0.615-1.594
c-0.084-0.596-0.07-1.193,0.042-1.79c0.074-0.466,0.214-0.932,0.419-1.398c0.205-0.466,0.494-0.867,0.867-1.202
c0.373-0.335,0.787-0.615,1.244-0.839c0.457-0.224,0.923-0.396,1.398-0.518c0.476-0.121,0.946-0.205,1.412-0.251
c0.466-0.046,0.941-0.07,1.426-0.07h1.93l0.14-0.951c0.056-0.335,0.065-0.671,0.028-1.006c-0.038-0.336-0.149-0.629-0.335-0.881
c-0.187-0.251-0.438-0.434-0.755-0.545c-0.317-0.112-0.643-0.167-0.979-0.167c-0.317,0-0.634,0.038-0.951,0.112
c-0.317,0.075-0.615,0.209-0.895,0.405c-0.279,0.196-0.508,0.434-0.685,0.713c-0.177,0.28-0.293,0.578-0.349,0.895H79.07
c0.093-0.429,0.224-0.848,0.392-1.258c0.167-0.41,0.387-0.797,0.657-1.161c0.27-0.363,0.587-0.689,0.95-0.979
c0.364-0.289,0.75-0.521,1.161-0.699c0.41-0.177,0.829-0.303,1.258-0.377c0.428-0.074,0.857-0.112,1.286-0.112
c0.503,0,0.997,0.042,1.482,0.125c0.484,0.084,0.937,0.229,1.356,0.434s0.787,0.48,1.104,0.825
c0.316,0.345,0.554,0.741,0.713,1.188c0.158,0.447,0.247,0.918,0.266,1.412c0.018,0.494-0.019,0.993-0.112,1.496l-1.538,9.283
h-2.824l0.392-2.321c-0.206,0.354-0.448,0.695-0.727,1.021c-0.28,0.327-0.597,0.606-0.951,0.839
c-0.354,0.233-0.732,0.405-1.132,0.518c-0.401,0.112-0.797,0.167-1.188,0.167C81.018,89.411,80.44,89.308,79.881,89.103z
 M82.453,86.95c0.429,0,0.867-0.079,1.314-0.238c0.447-0.158,0.843-0.4,1.188-0.727c0.345-0.326,0.61-0.703,0.797-1.132
c0.186-0.428,0.317-0.867,0.392-1.314l0.112-0.643h-1.51c-0.261,0-0.522,0.005-0.783,0.014
c-0.261,0.009-0.517,0.038-0.769,0.083c-0.251,0.047-0.508,0.112-0.769,0.196c-0.261,0.084-0.508,0.196-0.741,0.335
c-0.233,0.14-0.424,0.327-0.573,0.56c-0.149,0.233-0.251,0.48-0.308,0.741c-0.037,0.261-0.037,0.527,0,0.797
c0.038,0.271,0.126,0.513,0.266,0.727c0.14,0.214,0.336,0.368,0.587,0.461S82.173,86.95,82.453,86.95z"/>
<path d="M93.134,89.187l2.404-14.539h2.852l-0.447,2.572c0.205-0.373,0.438-0.731,0.699-1.077
c0.261-0.345,0.559-0.652,0.895-0.922c0.335-0.27,0.703-0.471,1.104-0.602c0.401-0.13,0.806-0.195,1.216-0.195
c0.335,0,0.667,0.051,0.993,0.154s0.596,0.275,0.811,0.517c0.214,0.242,0.377,0.517,0.489,0.825s0.182,0.629,0.209,0.965
s0.028,0.681,0,1.034c-0.028,0.354-0.07,0.699-0.125,1.035h-2.824c0.019-0.224,0.037-0.452,0.056-0.685
c0.018-0.233,0-0.452-0.056-0.657c-0.056-0.205-0.167-0.378-0.335-0.518s-0.363-0.209-0.587-0.209
c-0.298,0-0.592,0.061-0.88,0.182c-0.29,0.122-0.55,0.289-0.783,0.503s-0.433,0.457-0.601,0.727
c-0.167,0.271-0.308,0.55-0.419,0.839c-0.112,0.29-0.205,0.578-0.279,0.867c-0.075,0.29-0.131,0.583-0.168,0.881l-1.37,8.304
H93.134z"/>
<path d="M110.078,95.422c-0.429,0-0.862-0.028-1.3-0.083c-0.438-0.056-0.857-0.159-1.258-0.308
c-0.401-0.149-0.764-0.35-1.09-0.601c-0.326-0.252-0.597-0.555-0.811-0.909c-0.214-0.354-0.358-0.746-0.433-1.174
c-0.074-0.429-0.084-0.867-0.028-1.314h2.824c-0.056,0.28-0.033,0.555,0.07,0.825c0.103,0.27,0.256,0.489,0.461,0.657
c0.205,0.168,0.447,0.284,0.727,0.35c0.28,0.065,0.559,0.098,0.839,0.098c0.391,0,0.783-0.079,1.174-0.237
c0.391-0.159,0.722-0.396,0.993-0.713c0.27-0.317,0.479-0.667,0.629-1.048c0.149-0.382,0.251-0.769,0.308-1.16l0.447-2.712
c-0.205,0.354-0.457,0.681-0.755,0.979c-0.298,0.298-0.625,0.55-0.979,0.755c-0.354,0.205-0.727,0.354-1.119,0.447
c-0.391,0.093-0.783,0.14-1.174,0.14c-0.485,0-0.946-0.084-1.384-0.251c-0.438-0.168-0.802-0.419-1.09-0.755
c-0.29-0.335-0.508-0.727-0.657-1.174c-0.149-0.448-0.247-0.899-0.293-1.356c-0.047-0.457-0.052-0.932-0.014-1.426
c0.037-0.494,0.093-0.974,0.168-1.44l0.559-3.355c0.074-0.448,0.172-0.881,0.293-1.3c0.121-0.419,0.289-0.829,0.503-1.23
c0.214-0.4,0.479-0.773,0.797-1.118c0.317-0.345,0.671-0.638,1.062-0.881c0.391-0.242,0.801-0.419,1.23-0.531
s0.867-0.167,1.314-0.167c0.41,0,0.806,0.061,1.188,0.182c0.382,0.122,0.708,0.317,0.979,0.587
c0.27,0.271,0.485,0.583,0.643,0.937s0.275,0.727,0.35,1.118l0.447-2.6h2.824l-2.572,15.545
c-0.075,0.466-0.187,0.927-0.335,1.384c-0.149,0.457-0.354,0.89-0.615,1.3c-0.261,0.41-0.578,0.787-0.951,1.132
c-0.373,0.345-0.778,0.624-1.216,0.839c-0.438,0.214-0.89,0.363-1.356,0.447C111.009,95.38,110.544,95.422,110.078,95.422z
 M111.168,86.95c0.354,0,0.713-0.065,1.077-0.196c0.363-0.13,0.68-0.335,0.95-0.615c0.27-0.279,0.48-0.596,0.629-0.95
c0.149-0.354,0.251-0.708,0.308-1.062l0.559-3.355c0.037-0.298,0.07-0.591,0.098-0.881c0.028-0.289,0.028-0.568,0-0.839
c-0.028-0.27-0.079-0.54-0.154-0.811c-0.075-0.27-0.191-0.513-0.349-0.727c-0.159-0.214-0.364-0.373-0.615-0.475
s-0.527-0.154-0.825-0.154c-0.392,0-0.783,0.08-1.174,0.237c-0.392,0.159-0.732,0.392-1.021,0.699
c-0.29,0.308-0.513,0.657-0.671,1.048c-0.158,0.392-0.266,0.783-0.321,1.174l-0.559,3.355c-0.056,0.279-0.089,0.559-0.098,0.839
c-0.01,0.279,0.004,0.55,0.042,0.811c0.037,0.261,0.107,0.513,0.21,0.755c0.102,0.243,0.247,0.457,0.433,0.643
c0.186,0.187,0.41,0.317,0.671,0.392C110.618,86.913,110.888,86.95,111.168,86.95z"/>
<path d="M125.176,89.411c-0.559,0-1.104-0.056-1.636-0.167c-0.531-0.112-1.016-0.303-1.454-0.573s-0.811-0.62-1.118-1.049
c-0.308-0.428-0.531-0.895-0.671-1.398c-0.14-0.503-0.206-1.03-0.196-1.58c0.009-0.55,0.06-1.095,0.154-1.636l0.559-3.355
c0.074-0.485,0.191-0.955,0.35-1.412c0.158-0.457,0.373-0.895,0.643-1.314c0.27-0.419,0.601-0.797,0.992-1.133
c0.392-0.335,0.811-0.61,1.258-0.825c0.447-0.214,0.909-0.358,1.384-0.433c0.475-0.074,0.946-0.112,1.412-0.112
c0.56,0,1.1,0.056,1.622,0.167c0.521,0.112,0.997,0.308,1.426,0.587c0.429,0.279,0.787,0.634,1.077,1.062
c0.289,0.429,0.499,0.895,0.629,1.398c0.13,0.503,0.191,1.025,0.182,1.565c-0.009,0.541-0.051,1.082-0.125,1.622l-0.392,2.32
h-8.22l-0.028,0.252c-0.056,0.279-0.089,0.559-0.098,0.839c-0.01,0.279,0.009,0.555,0.056,0.825
c0.046,0.271,0.121,0.527,0.224,0.769c0.102,0.242,0.251,0.452,0.447,0.629c0.196,0.177,0.429,0.303,0.699,0.377
c0.27,0.075,0.545,0.112,0.825,0.112c0.298,0,0.605-0.032,0.922-0.098s0.615-0.187,0.895-0.364
c0.279-0.177,0.517-0.4,0.713-0.671c0.196-0.27,0.331-0.563,0.405-0.881h2.796c-0.149,0.634-0.396,1.244-0.741,1.832
c-0.345,0.587-0.788,1.086-1.328,1.496c-0.541,0.41-1.132,0.704-1.775,0.881S125.792,89.411,125.176,89.411z M128.839,80.687
l0.056-0.251c0.037-0.28,0.065-0.559,0.083-0.839s0.009-0.549-0.028-0.811c-0.038-0.261-0.112-0.513-0.224-0.755
c-0.112-0.242-0.261-0.457-0.447-0.643c-0.187-0.186-0.41-0.316-0.671-0.391c-0.261-0.074-0.531-0.112-0.811-0.112
c-0.392,0-0.788,0.075-1.188,0.224c-0.401,0.149-0.746,0.382-1.034,0.699c-0.29,0.317-0.513,0.671-0.671,1.062
c-0.158,0.392-0.266,0.783-0.321,1.174l-0.112,0.643H128.839z"/>
<path d="M140.442,89.411c-0.466,0-0.914-0.065-1.342-0.196c-0.429-0.13-0.797-0.34-1.104-0.629s-0.545-0.633-0.713-1.035
c-0.168-0.4-0.285-0.825-0.35-1.272c-0.065-0.447-0.084-0.899-0.056-1.356c0.028-0.457,0.079-0.909,0.154-1.356l1.091-6.458
h-2.461v-2.46h2.852l1.007-6.012h2.824l-0.979,6.012h4.669v2.46h-5.089l-1.146,6.85c-0.019,0.206-0.042,0.41-0.07,0.615
s-0.042,0.41-0.042,0.615s0.019,0.41,0.056,0.615c0.037,0.206,0.098,0.392,0.182,0.56c0.084,0.167,0.205,0.307,0.363,0.419
c0.158,0.112,0.34,0.168,0.545,0.168c0.205,0,0.405-0.046,0.601-0.14s0.364-0.224,0.503-0.392s0.256-0.345,0.35-0.531
c0.093-0.186,0.177-0.373,0.251-0.559c0.074-0.186,0.135-0.377,0.182-0.573c0.046-0.196,0.088-0.396,0.126-0.601
c0-0.019,0.004-0.042,0.014-0.07c0.009-0.028,0.014-0.051,0.014-0.07h2.796c0,0.037-0.005,0.079-0.014,0.125
c-0.01,0.047-0.014,0.089-0.014,0.126c-0.075,0.429-0.182,0.853-0.321,1.272c-0.14,0.419-0.317,0.825-0.531,1.216
c-0.215,0.392-0.476,0.765-0.783,1.119s-0.657,0.648-1.048,0.88c-0.392,0.233-0.802,0.401-1.23,0.503
C141.299,89.359,140.871,89.411,140.442,89.411z"/>
<path d="M146.65,93.185l12.61-27.009h2.88l-12.61,27.009H146.65z"/>
</g>
</g>
<g class="st2">
<defs>
<polygon id="SVGID_7_" points="3,367 559.68,367 559.68,7 3,7 3,367 "/>
</defs>
<clipPath id="SVGID_8_">
<use xlink:href="#SVGID_7_" style="overflow:visible;"/>
</clipPath>
<g class="st4">
<defs>
<rect id="SVGID_9_" x="3" y="7" width="556.68" height="360"/>
</defs>
<clipPath id="SVGID_10_">
<use xlink:href="#SVGID_9_" style="overflow:visible;"/>
</clipPath>
<g class="st5">
<path d="M166.146,79.093l-2.097-1.649l3.383-3.467l-3.831-1.118l0.923-2.321l3.858,1.538l0.559-4.642l2.768,0.419l-0.895,4.082
l3.998-1.398l0.839,2.349l-4.641,1.23l2.237,3.551l-2.46,1.202l-1.678-3.383L166.146,79.093z"/>
</g>
</g>
<g class="st4">
<defs>
<polygon id="SVGID_11_" points="3,367 559.68,367 559.68,7 3,7 3,367 "/>
</defs>
<clipPath id="SVGID_12_">
<use xlink:href="#SVGID_11_" style="overflow:visible;"/>
</clipPath>
<g class="st6">
<defs>
<rect id="SVGID_13_" x="3" y="7" width="556.68" height="360"/>
</defs>
<clipPath id="SVGID_14_">
<use xlink:href="#SVGID_13_" style="overflow:visible;"/>
</clipPath>
<g class="st7">
<path d="M180.067,79.093l-2.097-1.649l3.383-3.467l-3.831-1.118l0.923-2.321l3.858,1.538l0.559-4.642l2.768,0.419
l-0.895,4.082l3.998-1.398l0.839,2.349l-4.641,1.23l2.237,3.551l-2.46,1.202l-1.678-3.383L180.067,79.093z"/>
</g>
</g>
<g class="st6">
<defs>
<polygon id="SVGID_15_" points="3,367 559.68,367 559.68,7 3,7 3,367 "/>
</defs>
<clipPath id="SVGID_16_">
<use xlink:href="#SVGID_15_" style="overflow:visible;"/>
</clipPath>
<g class="st8">
<defs>
<rect id="SVGID_17_" x="3" y="7" width="556.68" height="360"/>
</defs>
<clipPath id="SVGID_18_">
<use xlink:href="#SVGID_17_" style="overflow:visible;"/>
</clipPath>
<g class="st9">
<path d="M55.199,123.004c-0.411,0-0.807-0.075-1.188-0.224c-0.382-0.149-0.685-0.377-0.909-0.685s-0.368-0.662-0.434-1.062
c-0.065-0.4-0.07-0.806-0.014-1.216c0.056-0.279,0.158-0.554,0.308-0.825c0.149-0.27,0.344-0.494,0.587-0.671
c0.242-0.177,0.508-0.298,0.797-0.364c0.289-0.065,0.573-0.098,0.853-0.098c0.41,0,0.801,0.075,1.174,0.224
c0.373,0.149,0.675,0.377,0.909,0.685c0.232,0.308,0.382,0.662,0.447,1.062c0.065,0.401,0.06,0.807-0.014,1.216
c-0.056,0.298-0.154,0.578-0.293,0.839s-0.335,0.48-0.587,0.657c-0.251,0.178-0.517,0.298-0.797,0.364
C55.758,122.972,55.479,123.004,55.199,123.004z"/>
</g>
</g>
<g class="st8">
<defs>
<polygon id="SVGID_19_" points="3,367 559.68,367 559.68,7 3,7 3,367 "/>
</defs>
<clipPath id="SVGID_20_">
<use xlink:href="#SVGID_19_" style="overflow:visible;"/>
</clipPath>
<g class="st10">
<defs>
<rect id="SVGID_21_" x="3" y="7" width="556.68" height="360"/>
</defs>
<clipPath id="SVGID_22_">
<use xlink:href="#SVGID_21_" style="overflow:visible;"/>
</clipPath>
<g class="st11">
<path d="M69.09,123.004c-0.541,0-1.072-0.056-1.594-0.167c-0.522-0.112-0.997-0.308-1.426-0.587
c-0.429-0.28-0.788-0.633-1.077-1.062c-0.289-0.429-0.499-0.895-0.629-1.398c-0.131-0.503-0.191-1.025-0.182-1.566
c0.009-0.54,0.06-1.081,0.154-1.622l0.559-3.355c0.074-0.466,0.186-0.927,0.335-1.384c0.149-0.457,0.359-0.895,0.629-1.314
s0.592-0.797,0.965-1.132c0.373-0.335,0.783-0.61,1.23-0.825c0.447-0.214,0.904-0.363,1.37-0.447
c0.466-0.083,0.932-0.125,1.398-0.125c0.485,0,0.955,0.033,1.412,0.098c0.457,0.065,0.89,0.187,1.3,0.363
c0.41,0.178,0.783,0.411,1.118,0.699c0.335,0.289,0.605,0.629,0.811,1.021c0.205,0.392,0.335,0.82,0.392,1.286
c0.056,0.466,0.046,0.932-0.028,1.398c0,0.038-0.004,0.07-0.014,0.098c-0.01,0.028-0.014,0.061-0.014,0.098h-2.824
c0-0.019,0.004-0.032,0.014-0.042c0.009-0.009,0.014-0.023,0.014-0.042c0.056-0.335,0.051-0.671-0.014-1.006
s-0.2-0.62-0.405-0.853c-0.206-0.233-0.466-0.4-0.783-0.503c-0.317-0.103-0.643-0.154-0.979-0.154
c-0.391,0-0.783,0.08-1.174,0.237c-0.391,0.159-0.731,0.392-1.021,0.699s-0.508,0.657-0.657,1.048
c-0.149,0.392-0.252,0.783-0.308,1.174l-0.559,3.355c-0.056,0.279-0.089,0.555-0.098,0.825
c-0.01,0.271,0.004,0.541,0.042,0.811c0.037,0.27,0.102,0.527,0.196,0.769c0.093,0.243,0.228,0.452,0.405,0.629
s0.396,0.308,0.657,0.391c0.261,0.084,0.521,0.126,0.783,0.126c0.392,0,0.778-0.079,1.161-0.238
c0.382-0.158,0.713-0.387,0.992-0.685c0.28-0.298,0.503-0.633,0.671-1.006c0.167-0.373,0.279-0.755,0.335-1.146h2.824
c-0.093,0.466-0.224,0.933-0.391,1.398c-0.168,0.466-0.382,0.914-0.643,1.342c-0.261,0.429-0.573,0.825-0.937,1.188
c-0.363,0.363-0.764,0.671-1.202,0.922c-0.438,0.252-0.895,0.429-1.37,0.531C70.055,122.953,69.575,123.004,69.09,123.004z"
/>
<path d="M76.584,128.792l3.383-20.55h2.852l-0.363,2.097c0.224-0.354,0.479-0.68,0.769-0.979
c0.289-0.298,0.61-0.549,0.964-0.755c0.354-0.205,0.727-0.354,1.119-0.447c0.391-0.093,0.783-0.14,1.174-0.14
c0.484,0,0.946,0.083,1.384,0.251s0.806,0.419,1.104,0.755c0.298,0.335,0.521,0.727,0.671,1.174
c0.149,0.447,0.247,0.899,0.294,1.356c0.046,0.457,0.051,0.933,0.014,1.426c-0.038,0.494-0.093,0.974-0.167,1.44
l-0.56,3.355c-0.075,0.447-0.172,0.881-0.293,1.3c-0.122,0.419-0.293,0.83-0.517,1.23c-0.224,0.401-0.489,0.774-0.797,1.119
c-0.308,0.345-0.657,0.639-1.049,0.881c-0.391,0.242-0.806,0.419-1.244,0.531c-0.438,0.112-0.872,0.167-1.3,0.167
c-0.411,0-0.811-0.061-1.203-0.182c-0.391-0.121-0.723-0.317-0.992-0.587c-0.271-0.27-0.485-0.582-0.644-0.937
c-0.158-0.354-0.275-0.727-0.349-1.118l-1.426,8.611H76.584z M83.238,120.544c0.41,0,0.811-0.079,1.203-0.238
c0.391-0.158,0.731-0.391,1.021-0.699c0.289-0.308,0.507-0.657,0.657-1.049c0.149-0.391,0.261-0.783,0.335-1.174l0.56-3.355
c0.037-0.28,0.065-0.559,0.083-0.839s0.009-0.549-0.028-0.811c-0.038-0.261-0.112-0.513-0.224-0.755
c-0.112-0.242-0.256-0.457-0.434-0.643c-0.177-0.186-0.396-0.316-0.657-0.391c-0.261-0.074-0.531-0.112-0.811-0.112
c-0.373,0-0.736,0.065-1.09,0.196c-0.354,0.13-0.671,0.335-0.951,0.615c-0.28,0.28-0.489,0.597-0.629,0.951
c-0.14,0.354-0.238,0.708-0.294,1.062l-0.559,3.355c-0.056,0.298-0.093,0.592-0.112,0.88c-0.019,0.29-0.019,0.569,0,0.839
c0.019,0.271,0.065,0.541,0.14,0.811c0.075,0.271,0.191,0.513,0.35,0.727c0.158,0.214,0.368,0.373,0.629,0.475
C82.689,120.493,82.959,120.544,83.238,120.544z"/>
<path d="M97.162,123.004c-0.541,0-1.072-0.056-1.594-0.167c-0.522-0.112-0.997-0.308-1.426-0.587
c-0.429-0.28-0.788-0.633-1.077-1.062c-0.289-0.429-0.499-0.895-0.629-1.398c-0.131-0.503-0.191-1.025-0.182-1.566
c0.009-0.54,0.06-1.081,0.154-1.622l0.559-3.355c0.074-0.466,0.186-0.927,0.335-1.384c0.149-0.457,0.359-0.895,0.629-1.314
s0.592-0.797,0.965-1.132c0.373-0.335,0.783-0.61,1.23-0.825c0.447-0.214,0.904-0.363,1.37-0.447
c0.466-0.083,0.932-0.125,1.398-0.125c0.485,0,0.955,0.033,1.412,0.098c0.457,0.065,0.89,0.187,1.3,0.363
c0.41,0.178,0.783,0.411,1.118,0.699c0.335,0.289,0.605,0.629,0.811,1.021c0.205,0.392,0.335,0.82,0.392,1.286
c0.056,0.466,0.046,0.932-0.028,1.398c0,0.038-0.004,0.07-0.014,0.098c-0.01,0.028-0.014,0.061-0.014,0.098h-2.824
c0-0.019,0.004-0.032,0.014-0.042c0.009-0.009,0.014-0.023,0.014-0.042c0.056-0.335,0.051-0.671-0.014-1.006
s-0.2-0.62-0.405-0.853c-0.206-0.233-0.466-0.4-0.783-0.503c-0.317-0.103-0.643-0.154-0.979-0.154
c-0.391,0-0.783,0.08-1.174,0.237c-0.391,0.159-0.731,0.392-1.021,0.699s-0.508,0.657-0.657,1.048
c-0.149,0.392-0.252,0.783-0.308,1.174l-0.559,3.355c-0.056,0.279-0.089,0.555-0.098,0.825
c-0.01,0.271,0.004,0.541,0.042,0.811c0.037,0.27,0.102,0.527,0.196,0.769c0.093,0.243,0.228,0.452,0.405,0.629
s0.396,0.308,0.657,0.391c0.261,0.084,0.521,0.126,0.783,0.126c0.392,0,0.778-0.079,1.161-0.238
c0.382-0.158,0.713-0.387,0.992-0.685c0.28-0.298,0.503-0.633,0.671-1.006c0.167-0.373,0.279-0.755,0.335-1.146h2.824
c-0.093,0.466-0.224,0.933-0.391,1.398c-0.168,0.466-0.382,0.914-0.643,1.342c-0.261,0.429-0.573,0.825-0.937,1.188
c-0.363,0.363-0.764,0.671-1.202,0.922c-0.438,0.252-0.895,0.429-1.37,0.531C98.127,122.953,97.647,123.004,97.162,123.004z
"/>
<path d="M107.955,122.697c-0.559-0.205-1.002-0.541-1.328-1.006c-0.326-0.466-0.531-0.997-0.615-1.594
c-0.084-0.596-0.07-1.193,0.042-1.79c0.074-0.466,0.214-0.932,0.419-1.398c0.205-0.466,0.494-0.867,0.867-1.202
c0.373-0.335,0.787-0.615,1.244-0.839c0.457-0.224,0.923-0.396,1.398-0.518c0.476-0.121,0.946-0.205,1.412-0.251
c0.466-0.046,0.941-0.07,1.426-0.07h1.93l0.14-0.951c0.056-0.335,0.065-0.671,0.028-1.006
c-0.038-0.336-0.149-0.629-0.335-0.881c-0.187-0.251-0.438-0.434-0.755-0.545c-0.317-0.112-0.643-0.167-0.979-0.167
c-0.317,0-0.634,0.038-0.951,0.112c-0.317,0.075-0.615,0.209-0.895,0.405c-0.279,0.196-0.508,0.434-0.685,0.713
c-0.177,0.28-0.293,0.578-0.349,0.895h-2.824c0.093-0.429,0.224-0.848,0.392-1.258c0.167-0.41,0.387-0.797,0.657-1.161
c0.27-0.363,0.587-0.689,0.95-0.979c0.364-0.289,0.75-0.521,1.161-0.699c0.41-0.177,0.829-0.303,1.258-0.377
c0.428-0.074,0.857-0.112,1.286-0.112c0.503,0,0.997,0.042,1.482,0.125c0.484,0.084,0.937,0.229,1.356,0.434
s0.787,0.48,1.104,0.825c0.316,0.345,0.554,0.741,0.713,1.188c0.158,0.447,0.247,0.918,0.266,1.412
c0.018,0.494-0.019,0.993-0.112,1.496l-1.538,9.283h-2.824l0.392-2.321c-0.206,0.354-0.448,0.695-0.727,1.021
c-0.28,0.327-0.597,0.606-0.951,0.839c-0.354,0.233-0.732,0.405-1.132,0.518c-0.401,0.112-0.797,0.167-1.188,0.167
C109.092,123.004,108.514,122.902,107.955,122.697z M110.527,120.544c0.429,0,0.867-0.079,1.314-0.238
c0.447-0.158,0.843-0.4,1.188-0.727c0.345-0.326,0.61-0.703,0.797-1.132c0.186-0.428,0.317-0.867,0.392-1.314l0.112-0.643
h-1.51c-0.261,0-0.522,0.005-0.783,0.014c-0.261,0.009-0.517,0.038-0.769,0.083c-0.251,0.047-0.508,0.112-0.769,0.196
c-0.261,0.084-0.508,0.196-0.741,0.335c-0.233,0.14-0.424,0.327-0.573,0.56c-0.149,0.233-0.251,0.48-0.308,0.741
c-0.037,0.261-0.037,0.527,0,0.797c0.038,0.271,0.126,0.513,0.266,0.727c0.14,0.214,0.336,0.368,0.587,0.461
S110.248,120.544,110.527,120.544z"/>
<path d="M125.122,123.004c-0.541,0-1.072-0.056-1.594-0.167c-0.522-0.112-0.997-0.308-1.426-0.587
c-0.429-0.28-0.788-0.633-1.077-1.062c-0.289-0.429-0.499-0.895-0.629-1.398c-0.131-0.503-0.191-1.025-0.182-1.566
c0.009-0.54,0.06-1.081,0.154-1.622l0.559-3.355c0.074-0.466,0.186-0.927,0.335-1.384c0.149-0.457,0.359-0.895,0.629-1.314
s0.592-0.797,0.965-1.132c0.373-0.335,0.783-0.61,1.23-0.825c0.447-0.214,0.904-0.363,1.37-0.447
c0.466-0.083,0.932-0.125,1.398-0.125c0.485,0,0.955,0.033,1.412,0.098c0.457,0.065,0.89,0.187,1.3,0.363
c0.41,0.178,0.783,0.411,1.118,0.699c0.335,0.289,0.605,0.629,0.811,1.021c0.205,0.392,0.335,0.82,0.392,1.286
c0.056,0.466,0.046,0.932-0.028,1.398c0,0.038-0.004,0.07-0.014,0.098c-0.01,0.028-0.014,0.061-0.014,0.098h-2.824
c0-0.019,0.004-0.032,0.014-0.042c0.009-0.009,0.014-0.023,0.014-0.042c0.056-0.335,0.051-0.671-0.014-1.006
s-0.2-0.62-0.405-0.853c-0.206-0.233-0.466-0.4-0.783-0.503c-0.317-0.103-0.643-0.154-0.979-0.154
c-0.391,0-0.783,0.08-1.174,0.237c-0.391,0.159-0.731,0.392-1.021,0.699s-0.508,0.657-0.657,1.048
c-0.149,0.392-0.252,0.783-0.308,1.174l-0.559,3.355c-0.056,0.279-0.089,0.555-0.098,0.825
c-0.01,0.271,0.004,0.541,0.042,0.811c0.037,0.27,0.102,0.527,0.196,0.769c0.093,0.243,0.228,0.452,0.405,0.629
s0.396,0.308,0.657,0.391c0.261,0.084,0.521,0.126,0.783,0.126c0.392,0,0.778-0.079,1.161-0.238
c0.382-0.158,0.713-0.387,0.992-0.685c0.28-0.298,0.503-0.633,0.671-1.006c0.167-0.373,0.279-0.755,0.335-1.146h2.824
c-0.093,0.466-0.224,0.933-0.391,1.398c-0.168,0.466-0.382,0.914-0.643,1.342c-0.261,0.429-0.573,0.825-0.937,1.188
c-0.363,0.363-0.764,0.671-1.202,0.922c-0.438,0.252-0.895,0.429-1.37,0.531
C126.087,122.953,125.607,123.004,125.122,123.004z"/>
<path d="M133.594,122.781l3.411-20.551h2.824l-1.286,7.857c0.168-0.298,0.368-0.583,0.602-0.853
c0.232-0.27,0.498-0.503,0.797-0.699c0.298-0.196,0.615-0.331,0.95-0.405c0.336-0.074,0.662-0.112,0.979-0.112
c0.484,0,0.959,0.079,1.426,0.237c0.466,0.159,0.867,0.396,1.202,0.713s0.597,0.694,0.783,1.132
c0.186,0.438,0.316,0.895,0.391,1.37c0.074,0.476,0.098,0.965,0.07,1.468c-0.028,0.503-0.079,0.997-0.154,1.482l-1.398,8.36
h-2.824l1.454-8.751c0.037-0.261,0.065-0.531,0.083-0.811c0.019-0.279,0.014-0.545-0.014-0.797
c-0.028-0.251-0.084-0.503-0.168-0.755c-0.084-0.251-0.209-0.47-0.377-0.657c-0.167-0.186-0.373-0.322-0.615-0.406
c-0.242-0.083-0.503-0.125-0.783-0.125c-0.354,0-0.713,0.07-1.077,0.209c-0.363,0.14-0.681,0.345-0.951,0.615
c-0.27,0.271-0.475,0.583-0.615,0.937c-0.14,0.354-0.238,0.708-0.294,1.062l-1.565,9.479H133.594z"/>
<path d="M153.25,123.004c-0.559,0-1.104-0.056-1.636-0.167c-0.531-0.112-1.016-0.303-1.454-0.573s-0.811-0.62-1.118-1.049
c-0.308-0.428-0.531-0.895-0.671-1.398c-0.14-0.503-0.206-1.03-0.196-1.58c0.009-0.55,0.06-1.095,0.154-1.636l0.559-3.355
c0.074-0.485,0.191-0.955,0.35-1.412c0.158-0.457,0.373-0.895,0.643-1.314c0.27-0.419,0.601-0.797,0.992-1.133
c0.392-0.335,0.811-0.61,1.258-0.825c0.447-0.214,0.909-0.358,1.384-0.433c0.475-0.074,0.946-0.112,1.412-0.112
c0.56,0,1.1,0.056,1.622,0.167c0.521,0.112,0.997,0.308,1.426,0.587c0.429,0.279,0.787,0.634,1.077,1.062
c0.289,0.429,0.499,0.895,0.629,1.398c0.13,0.503,0.191,1.025,0.182,1.565c-0.009,0.541-0.051,1.082-0.125,1.622
l-0.392,2.32h-8.22l-0.028,0.252c-0.056,0.279-0.089,0.559-0.098,0.839c-0.01,0.279,0.009,0.555,0.056,0.825
c0.046,0.271,0.121,0.527,0.224,0.769c0.102,0.242,0.251,0.452,0.447,0.629c0.196,0.177,0.429,0.303,0.699,0.377
c0.27,0.075,0.545,0.112,0.825,0.112c0.298,0,0.605-0.032,0.922-0.098s0.615-0.187,0.895-0.364
c0.279-0.177,0.517-0.4,0.713-0.671c0.196-0.27,0.331-0.563,0.405-0.881h2.796c-0.149,0.634-0.396,1.244-0.741,1.832
c-0.345,0.587-0.788,1.086-1.328,1.496c-0.541,0.41-1.132,0.704-1.775,0.881S153.865,123.004,153.25,123.004z
 M156.913,114.281l0.056-0.251c0.037-0.28,0.065-0.559,0.083-0.839s0.009-0.549-0.028-0.811
c-0.038-0.261-0.112-0.513-0.224-0.755c-0.112-0.242-0.261-0.457-0.447-0.643c-0.187-0.186-0.41-0.316-0.671-0.391
c-0.261-0.074-0.531-0.112-0.811-0.112c-0.392,0-0.788,0.075-1.188,0.224c-0.401,0.149-0.746,0.382-1.034,0.699
c-0.29,0.317-0.513,0.671-0.671,1.062c-0.158,0.392-0.266,0.783-0.321,1.174l-0.112,0.643H156.913z"/>
</g>
</g>
<g class="st10">
<defs>
<polygon id="SVGID_23_" points="3,367 559.68,367 559.68,7 3,7 3,367 "/>
</defs>
<clipPath id="SVGID_24_">
<use xlink:href="#SVGID_23_" style="overflow:visible;"/>
</clipPath>
<g class="st12">
<defs>
<rect id="SVGID_25_" x="3" y="7" width="556.68" height="360"/>
</defs>
<clipPath id="SVGID_26_">
<use xlink:href="#SVGID_25_" style="overflow:visible;"/>
</clipPath>
<g class="st13">
<path d="M160.582,126.779l12.61-27.009h2.88l-12.61,27.009H160.582z"/>
<path d="M180.182,112.687l-2.097-1.649l3.383-3.467l-3.831-1.118l0.923-2.321l3.858,1.538l0.559-4.642l2.768,0.419
l-0.895,4.082l3.998-1.398l0.839,2.349l-4.641,1.23l2.237,3.551l-2.46,1.202l-1.678-3.383L180.182,112.687z"/>
<path d="M194.217,112.687l-2.097-1.649l3.383-3.467l-3.831-1.118l0.923-2.321l3.858,1.538l0.559-4.642l2.768,0.419
l-0.895,4.082l3.998-1.398l0.839,2.349l-4.641,1.23l2.237,3.551l-2.46,1.202l-1.678-3.383L194.217,112.687z"/>
</g>
</g>
<g class="st12">
<defs>
<polygon id="SVGID_27_" points="3,367 559.68,367 559.68,7 3,7 3,367 "/>
</defs>
<clipPath id="SVGID_28_">
<use xlink:href="#SVGID_27_" style="overflow:visible;"/>
</clipPath>
<g class="st14">
<defs>
<rect id="SVGID_29_" x="3" y="7" width="556.68" height="360"/>
</defs>
<clipPath id="SVGID_30_">
<use xlink:href="#SVGID_29_" style="overflow:visible;"/>
</clipPath>
<g class="st15">
<path d="M81.111,156.382l-1.845-14.539h2.964l0.979,9.702c0.019,0.224,0.037,0.447,0.056,0.671
c0.018,0.224,0.037,0.447,0.056,0.671c0.093-0.224,0.191-0.447,0.293-0.671s0.2-0.447,0.294-0.671l4.194-9.702h2.964
l-6.683,14.539H81.111z"/>
<path d="M97.216,156.606c-0.559,0-1.104-0.056-1.636-0.167c-0.531-0.112-1.016-0.303-1.454-0.573s-0.811-0.62-1.118-1.049
c-0.308-0.428-0.531-0.895-0.671-1.398c-0.14-0.503-0.206-1.03-0.196-1.58c0.009-0.55,0.06-1.095,0.154-1.636l0.559-3.355
c0.074-0.485,0.191-0.955,0.35-1.412c0.158-0.457,0.373-0.895,0.643-1.314c0.27-0.419,0.601-0.797,0.992-1.133
c0.392-0.335,0.811-0.61,1.258-0.825c0.447-0.214,0.909-0.358,1.384-0.433c0.475-0.074,0.946-0.112,1.412-0.112
c0.56,0,1.1,0.056,1.622,0.167c0.521,0.112,0.997,0.308,1.426,0.587c0.429,0.279,0.787,0.634,1.077,1.062
c0.289,0.429,0.499,0.895,0.629,1.398c0.13,0.503,0.191,1.025,0.182,1.565c-0.009,0.541-0.051,1.082-0.125,1.622
l-0.392,2.32h-8.22l-0.028,0.252c-0.056,0.279-0.089,0.559-0.098,0.839c-0.01,0.279,0.009,0.555,0.056,0.825
c0.046,0.271,0.121,0.527,0.224,0.769c0.102,0.242,0.251,0.452,0.447,0.629c0.196,0.177,0.429,0.303,0.699,0.377
c0.27,0.075,0.545,0.112,0.825,0.112c0.298,0,0.605-0.032,0.922-0.098s0.615-0.187,0.895-0.364
c0.279-0.177,0.517-0.4,0.713-0.671c0.196-0.27,0.331-0.563,0.405-0.881h2.796c-0.149,0.634-0.396,1.244-0.741,1.832
c-0.345,0.587-0.788,1.086-1.328,1.496c-0.541,0.41-1.132,0.704-1.775,0.881S97.832,156.606,97.216,156.606z
 M100.879,147.882l0.056-0.251c0.037-0.28,0.065-0.559,0.083-0.839s0.009-0.549-0.028-0.811
c-0.038-0.261-0.112-0.513-0.224-0.755c-0.112-0.242-0.261-0.457-0.447-0.643c-0.187-0.186-0.41-0.316-0.671-0.391
c-0.261-0.074-0.531-0.112-0.811-0.112c-0.392,0-0.788,0.075-1.188,0.224c-0.401,0.149-0.746,0.382-1.034,0.699
c-0.29,0.317-0.513,0.671-0.671,1.062c-0.158,0.392-0.266,0.783-0.321,1.174l-0.112,0.643H100.879z"/>
<path d="M105.52,156.382l2.405-14.539h2.852l-0.308,1.845c0.168-0.298,0.368-0.583,0.602-0.853
c0.232-0.27,0.498-0.503,0.797-0.699c0.298-0.196,0.615-0.331,0.95-0.405c0.336-0.074,0.662-0.112,0.979-0.112
c0.484,0,0.959,0.079,1.426,0.237c0.466,0.159,0.867,0.396,1.202,0.713s0.597,0.694,0.783,1.132
c0.186,0.438,0.316,0.895,0.391,1.37c0.074,0.476,0.098,0.965,0.07,1.468c-0.028,0.503-0.079,0.997-0.154,1.482
l-1.398,8.36h-2.824l1.454-8.751c0.037-0.261,0.065-0.531,0.083-0.811c0.019-0.279,0.014-0.545-0.014-0.797
c-0.028-0.251-0.084-0.503-0.168-0.755c-0.084-0.251-0.209-0.47-0.377-0.657c-0.167-0.186-0.373-0.322-0.615-0.406
c-0.242-0.083-0.503-0.125-0.783-0.125c-0.354,0-0.713,0.07-1.077,0.209c-0.363,0.14-0.681,0.345-0.951,0.615
c-0.27,0.271-0.475,0.583-0.615,0.937c-0.14,0.354-0.238,0.708-0.294,1.062l-1.565,9.479H105.52z"/>
<path d="M123.219,156.382l-1.845-14.539h2.964l0.979,9.702c0.019,0.224,0.037,0.447,0.056,0.671
c0.018,0.224,0.037,0.447,0.056,0.671c0.093-0.224,0.191-0.447,0.293-0.671s0.2-0.447,0.294-0.671l4.194-9.702h2.964
l-6.683,14.539H123.219z"/>
</g>
</g>
<g class="st14">
<defs>
<polygon id="SVGID_31_" points="3,367 559.68,367 559.68,7 3,7 3,367 "/>
</defs>
<clipPath id="SVGID_32_">
<use xlink:href="#SVGID_31_" style="overflow:visible;"/>
</clipPath>
<g class="st16">
<defs>
<rect id="SVGID_33_" x="3" y="7" width="556.68" height="360"/>
</defs>
<clipPath id="SVGID_34_">
<use xlink:href="#SVGID_33_" style="overflow:visible;"/>
</clipPath>
<g class="st17">
<path d="M132.621,160.38l12.61-27.009h2.88l-12.61,27.009H132.621z"/>
<path d="M152.221,146.289l-2.097-1.649l3.383-3.467l-3.831-1.118l0.923-2.321l3.858,1.538l0.559-4.642l2.768,0.419
l-0.895,4.082l3.998-1.398l0.839,2.349l-4.641,1.23l2.237,3.551l-2.46,1.202l-1.678-3.383L152.221,146.289z"/>
<path d="M166.256,146.289l-2.097-1.649l3.383-3.467l-3.831-1.118l0.923-2.321l3.858,1.538l0.559-4.642l2.768,0.419
l-0.895,4.082l3.998-1.398l0.839,2.349l-4.641,1.23l2.237,3.551l-2.46,1.202l-1.678-3.383L166.256,146.289z"/>
</g>
</g>
<g class="st16">
<defs>
<polygon id="SVGID_35_" points="3,367 559.68,367 559.68,7 3,7 3,367 "/>
</defs>
<clipPath id="SVGID_36_">
<use xlink:href="#SVGID_35_" style="overflow:visible;"/>
</clipPath>
<g class="st18">
<defs>
<rect id="SVGID_37_" x="3" y="7" width="556.68" height="360"/>
</defs>
<clipPath id="SVGID_38_">
<use xlink:href="#SVGID_37_" style="overflow:visible;"/>
</clipPath>
<g class="st19">
<path d="M67.072,189.984l-1.845-14.54h2.964l0.979,9.703c0.019,0.224,0.037,0.447,0.056,0.671
c0.018,0.224,0.037,0.447,0.056,0.671c0.093-0.224,0.191-0.447,0.293-0.671s0.2-0.447,0.294-0.671l4.194-9.703h2.964
l-6.683,14.54H67.072z"/>
<path d="M83.177,190.208c-0.559,0-1.104-0.056-1.636-0.168c-0.531-0.111-1.016-0.303-1.454-0.573
c-0.438-0.27-0.811-0.619-1.118-1.048s-0.531-0.896-0.671-1.398c-0.14-0.503-0.206-1.03-0.196-1.58
c0.009-0.55,0.06-1.095,0.154-1.636l0.559-3.355c0.074-0.485,0.191-0.955,0.35-1.412
c0.158-0.457,0.373-0.895,0.643-1.314c0.27-0.419,0.601-0.797,0.992-1.133c0.392-0.335,0.811-0.61,1.258-0.825
c0.447-0.214,0.909-0.358,1.384-0.433c0.475-0.074,0.946-0.112,1.412-0.112c0.56,0,1.1,0.056,1.622,0.167
c0.521,0.112,0.997,0.308,1.426,0.587c0.429,0.279,0.787,0.634,1.077,1.062c0.289,0.429,0.499,0.895,0.629,1.398
c0.13,0.503,0.191,1.025,0.182,1.565c-0.009,0.541-0.051,1.082-0.125,1.622l-0.392,2.32h-8.22l-0.028,0.252
c-0.056,0.279-0.089,0.56-0.098,0.839c-0.01,0.279,0.009,0.555,0.056,0.825c0.046,0.271,0.121,0.526,0.224,0.769
c0.102,0.242,0.251,0.452,0.447,0.629c0.196,0.178,0.429,0.304,0.699,0.378c0.27,0.074,0.545,0.111,0.825,0.111
c0.298,0,0.605-0.032,0.922-0.098s0.615-0.187,0.895-0.363c0.279-0.177,0.517-0.4,0.713-0.671s0.331-0.563,0.405-0.881
h2.796c-0.149,0.634-0.396,1.244-0.741,1.831c-0.345,0.588-0.788,1.087-1.328,1.496
c-0.541,0.41-1.132,0.704-1.775,0.881S83.793,190.208,83.177,190.208z M86.84,181.484l0.056-0.252
c0.037-0.279,0.065-0.559,0.083-0.839c0.019-0.28,0.009-0.549-0.028-0.811c-0.038-0.261-0.112-0.513-0.224-0.755
c-0.112-0.242-0.261-0.457-0.447-0.643c-0.187-0.186-0.41-0.316-0.671-0.391c-0.261-0.074-0.531-0.112-0.811-0.112
c-0.392,0-0.788,0.075-1.188,0.224c-0.401,0.149-0.746,0.382-1.034,0.699c-0.29,0.317-0.513,0.671-0.671,1.062
c-0.158,0.392-0.266,0.783-0.321,1.174l-0.112,0.644H86.84z"/>
<path d="M91.481,189.984l2.405-14.54h2.852l-0.308,1.845c0.168-0.298,0.368-0.583,0.602-0.853
c0.232-0.27,0.498-0.503,0.797-0.699c0.298-0.196,0.615-0.331,0.95-0.405c0.336-0.074,0.662-0.112,0.979-0.112
c0.484,0,0.959,0.079,1.426,0.237c0.466,0.159,0.867,0.396,1.202,0.713s0.597,0.694,0.783,1.132
c0.186,0.438,0.316,0.895,0.391,1.37c0.074,0.476,0.098,0.965,0.07,1.468c-0.028,0.503-0.079,0.998-0.154,1.482
l-1.398,8.36h-2.824l1.454-8.752c0.037-0.261,0.065-0.531,0.083-0.811c0.019-0.279,0.014-0.545-0.014-0.797
c-0.028-0.251-0.084-0.503-0.168-0.755c-0.084-0.251-0.209-0.47-0.377-0.657c-0.167-0.186-0.373-0.322-0.615-0.406
c-0.242-0.083-0.503-0.125-0.783-0.125c-0.354,0-0.713,0.07-1.077,0.209c-0.363,0.14-0.681,0.345-0.951,0.615
c-0.27,0.271-0.475,0.583-0.615,0.937c-0.14,0.354-0.238,0.708-0.294,1.063l-1.565,9.479H91.481z"/>
<path d="M109.599,190.208c-0.485,0-0.946-0.084-1.384-0.252c-0.438-0.167-0.802-0.419-1.09-0.755
c-0.29-0.335-0.508-0.727-0.657-1.174c-0.149-0.448-0.247-0.899-0.293-1.356c-0.047-0.457-0.052-0.932-0.014-1.426
c0.037-0.494,0.093-0.974,0.168-1.44l0.559-3.355c0.074-0.448,0.172-0.881,0.293-1.3
c0.121-0.419,0.289-0.829,0.503-1.23c0.214-0.4,0.479-0.773,0.797-1.118c0.317-0.345,0.671-0.638,1.062-0.881
c0.391-0.242,0.801-0.419,1.23-0.531s0.867-0.167,1.314-0.167c0.41,0,0.806,0.061,1.188,0.182
c0.382,0.122,0.708,0.317,0.979,0.587c0.27,0.271,0.485,0.583,0.643,0.937s0.275,0.727,0.35,1.118l1.426-8.612h2.852
l-3.411,20.551h-2.824l0.335-2.098c-0.205,0.354-0.457,0.682-0.755,0.979c-0.298,0.298-0.625,0.55-0.979,0.755
c-0.354,0.205-0.727,0.354-1.119,0.447C110.382,190.161,109.991,190.208,109.599,190.208z M111.165,187.747
c0.354,0,0.713-0.064,1.077-0.195c0.363-0.13,0.68-0.336,0.95-0.615s0.48-0.597,0.629-0.95
c0.149-0.354,0.251-0.709,0.308-1.062l0.559-3.355c0.037-0.298,0.07-0.592,0.098-0.881c0.028-0.289,0.028-0.569,0-0.839
c-0.028-0.27-0.079-0.54-0.154-0.811c-0.075-0.27-0.191-0.513-0.349-0.727c-0.159-0.214-0.364-0.373-0.615-0.475
s-0.527-0.154-0.825-0.154c-0.392,0-0.783,0.08-1.174,0.237c-0.392,0.159-0.732,0.392-1.021,0.699
c-0.29,0.308-0.513,0.657-0.671,1.048c-0.158,0.392-0.266,0.783-0.321,1.174l-0.559,3.355
c-0.056,0.279-0.089,0.56-0.098,0.839c-0.01,0.279,0.004,0.55,0.042,0.811c0.037,0.262,0.107,0.514,0.21,0.755
c0.102,0.243,0.247,0.457,0.433,0.644c0.186,0.187,0.41,0.317,0.671,0.392S110.885,187.747,111.165,187.747z"/>
<path d="M125.033,190.208c-0.541,0-1.072-0.056-1.593-0.168c-0.522-0.111-0.998-0.308-1.426-0.587
s-0.792-0.634-1.09-1.062c-0.298-0.429-0.513-0.895-0.643-1.398c-0.131-0.503-0.191-1.024-0.182-1.565
c0.009-0.54,0.06-1.081,0.154-1.622l0.559-3.355c0.074-0.485,0.191-0.955,0.35-1.412
c0.158-0.457,0.373-0.895,0.643-1.314c0.27-0.419,0.601-0.797,0.992-1.133c0.392-0.335,0.815-0.61,1.272-0.825
c0.457-0.214,0.918-0.373,1.384-0.475s0.941-0.154,1.426-0.154c0.541,0,1.072,0.07,1.594,0.209
c0.521,0.14,0.997,0.35,1.426,0.629c0.429,0.279,0.787,0.634,1.077,1.062c0.289,0.429,0.499,0.895,0.629,1.398
c0.13,0.503,0.191,1.025,0.182,1.565c-0.009,0.541-0.051,1.082-0.125,1.622l-0.56,3.355
c-0.075,0.484-0.191,0.955-0.349,1.412c-0.159,0.457-0.377,0.895-0.657,1.313c-0.28,0.42-0.611,0.798-0.993,1.133
c-0.382,0.336-0.802,0.611-1.258,0.825c-0.457,0.214-0.922,0.358-1.398,0.434
C125.97,190.171,125.499,190.208,125.033,190.208z M125.089,187.747c0.392,0,0.787-0.074,1.188-0.224
c0.4-0.148,0.75-0.382,1.048-0.699c0.298-0.316,0.521-0.671,0.671-1.062c0.149-0.391,0.261-0.782,0.335-1.174
l0.56-3.355c0.056-0.409,0.083-0.829,0.083-1.258c0-0.429-0.083-0.82-0.251-1.174c-0.168-0.354-0.434-0.629-0.797-0.825
c-0.363-0.196-0.75-0.293-1.16-0.293c-0.41,0-0.811,0.08-1.203,0.237c-0.391,0.159-0.727,0.392-1.006,0.699
s-0.499,0.657-0.657,1.048c-0.158,0.392-0.266,0.783-0.321,1.174l-0.559,3.355c-0.056,0.279-0.089,0.56-0.098,0.839
c-0.01,0.279,0.004,0.55,0.042,0.811c0.037,0.262,0.107,0.514,0.21,0.755c0.102,0.243,0.247,0.457,0.433,0.644
c0.186,0.187,0.41,0.317,0.671,0.392S124.809,187.747,125.089,187.747z"/>
<path d="M135.127,189.984l2.404-14.54h2.852l-0.447,2.572c0.205-0.373,0.438-0.731,0.699-1.077
c0.261-0.345,0.559-0.652,0.895-0.922c0.335-0.27,0.703-0.471,1.104-0.602c0.401-0.13,0.806-0.195,1.216-0.195
c0.335,0,0.667,0.051,0.993,0.154s0.596,0.275,0.811,0.517c0.214,0.242,0.377,0.517,0.489,0.825
s0.182,0.629,0.209,0.965s0.028,0.681,0,1.034c-0.028,0.354-0.07,0.699-0.125,1.035h-2.824
c0.019-0.224,0.037-0.452,0.056-0.685c0.018-0.233,0-0.452-0.056-0.657c-0.056-0.205-0.167-0.378-0.335-0.518
s-0.363-0.209-0.587-0.209c-0.298,0-0.592,0.061-0.88,0.182c-0.29,0.122-0.55,0.289-0.783,0.503
s-0.433,0.457-0.601,0.727c-0.167,0.271-0.308,0.55-0.419,0.839c-0.112,0.29-0.205,0.579-0.279,0.867
c-0.075,0.29-0.131,0.583-0.168,0.881l-1.37,8.305H135.127z"/>
<path d="M146.646,193.982l12.61-27.01h2.88l-12.61,27.01H146.646z"/>
<path d="M166.134,179.89l-2.097-1.649l3.383-3.467l-3.831-1.118l0.923-2.321l3.858,1.538l0.559-4.642l2.768,0.419
l-0.895,4.082l3.998-1.398l0.839,2.349l-4.641,1.23l2.237,3.551l-2.46,1.202l-1.678-3.383L166.134,179.89z"/>
<path d="M180.058,179.89l-2.097-1.649l3.383-3.467l-3.831-1.118l0.923-2.321l3.858,1.538l0.559-4.642l2.768,0.419
l-0.895,4.082l3.998-1.398l0.839,2.349l-4.641,1.23l2.237,3.551l-2.46,1.202l-1.678-3.383L180.058,179.89z"/>
</g>
</g>
<g class="st18">
<defs>
<polygon id="SVGID_39_" points="3,367 559.68,367 559.68,7 3,7 3,367 "/>
</defs>
<clipPath id="SVGID_40_">
<use xlink:href="#SVGID_39_" style="overflow:visible;"/>
</clipPath>
<path class="st20" d="M307.92,130.361C307.92,62.231,363.15,7,431.28,7s123.36,55.23,123.36,123.36
c0,68.13-55.23,123.36-123.36,123.36S307.92,198.49,307.92,130.361L307.92,130.361z"/>
<g class="st21">
<defs>
<polygon id="SVGID_41_" points="3,367 559.68,367 559.68,7 3,7 3,367 "/>
</defs>
<clipPath id="SVGID_42_">
<use xlink:href="#SVGID_41_" style="overflow:visible;"/>
</clipPath>
<g class="st22">
<defs>
<rect id="SVGID_43_" x="3" y="7" width="556.68" height="360"/>
</defs>
<clipPath id="SVGID_44_">
<use xlink:href="#SVGID_43_" style="overflow:visible;"/>
</clipPath>
<g class="st23">
<path d="M380.138,129.492l-2.098-1.649l3.384-3.467l-3.831-1.118l0.923-2.321l3.858,1.538l0.56-4.642l2.768,0.419
l-0.895,4.082l3.998-1.398l0.839,2.349l-4.642,1.23l2.237,3.551l-2.461,1.202l-1.678-3.383L380.138,129.492z"/>
</g>
</g>
<g class="st22">
<defs>
<polygon id="SVGID_45_" points="3,367 559.68,367 559.68,7 3,7 3,367 "/>
</defs>
<clipPath id="SVGID_46_">
<use xlink:href="#SVGID_45_" style="overflow:visible;"/>
</clipPath>
<g class="st24">
<defs>
<rect id="SVGID_47_" x="3" y="7" width="556.68" height="360"/>
</defs>
<clipPath id="SVGID_48_">
<use xlink:href="#SVGID_47_" style="overflow:visible;"/>
</clipPath>
<g class="st25">
<path d="M395.175,139.809c-0.41,0-0.807-0.075-1.188-0.224s-0.685-0.377-0.908-0.685s-0.368-0.662-0.434-1.062
c-0.065-0.4-0.069-0.806-0.014-1.216c0.056-0.279,0.158-0.554,0.308-0.825c0.148-0.27,0.345-0.494,0.587-0.671
s0.508-0.298,0.797-0.364c0.289-0.065,0.573-0.098,0.853-0.098c0.41,0,0.802,0.075,1.175,0.224
c0.372,0.149,0.675,0.377,0.908,0.685s0.382,0.662,0.447,1.062s0.061,0.807-0.014,1.216
c-0.056,0.298-0.153,0.578-0.294,0.839c-0.14,0.261-0.335,0.48-0.587,0.657c-0.252,0.178-0.518,0.298-0.797,0.364
C395.735,139.776,395.456,139.809,395.175,139.809z"/>
</g>
</g>
<g class="st24">
<defs>
<polygon id="SVGID_49_" points="3,367 559.68,367 559.68,7 3,7 3,367 "/>
</defs>
<clipPath id="SVGID_50_">
<use xlink:href="#SVGID_49_" style="overflow:visible;"/>
</clipPath>
<g class="st26">
<defs>
<rect id="SVGID_51_" x="3" y="7" width="556.68" height="360"/>
</defs>
<clipPath id="SVGID_52_">
<use xlink:href="#SVGID_51_" style="overflow:visible;"/>
</clipPath>
<g class="st27">
<path d="M403.511,139.585l2.404-14.539h2.852l-0.308,1.845c0.168-0.298,0.368-0.583,0.602-0.853
c0.232-0.27,0.498-0.503,0.797-0.699c0.298-0.196,0.615-0.331,0.95-0.405c0.336-0.074,0.662-0.112,0.979-0.112
c0.484,0,0.96,0.079,1.426,0.237c0.466,0.159,0.867,0.396,1.203,0.713c0.335,0.317,0.596,0.694,0.782,1.132
s0.317,0.895,0.392,1.37c0.074,0.476,0.098,0.965,0.07,1.468c-0.028,0.503-0.08,0.997-0.154,1.482l-1.397,8.36
h-2.824l1.454-8.751c0.037-0.261,0.064-0.531,0.084-0.811c0.018-0.279,0.014-0.545-0.015-0.797
c-0.027-0.251-0.084-0.503-0.167-0.755c-0.084-0.251-0.21-0.47-0.378-0.657c-0.168-0.186-0.373-0.322-0.615-0.406
c-0.242-0.083-0.503-0.125-0.783-0.125c-0.354,0-0.713,0.07-1.076,0.209s-0.681,0.345-0.95,0.615
c-0.271,0.271-0.476,0.583-0.615,0.937c-0.14,0.354-0.238,0.708-0.294,1.062l-1.565,9.479H403.511z"/>
<path d="M423.139,139.809c-0.541,0-1.072-0.056-1.594-0.167c-0.522-0.112-0.998-0.308-1.426-0.587
c-0.43-0.28-0.793-0.633-1.091-1.062c-0.299-0.429-0.513-0.895-0.644-1.398c-0.13-0.503-0.19-1.025-0.182-1.566
c0.01-0.54,0.061-1.081,0.154-1.622l0.559-3.355c0.074-0.485,0.191-0.955,0.35-1.412
c0.158-0.457,0.373-0.895,0.644-1.314c0.27-0.419,0.601-0.797,0.992-1.133c0.392-0.335,0.815-0.61,1.272-0.825
c0.456-0.214,0.918-0.373,1.384-0.475s0.941-0.154,1.426-0.154c0.541,0,1.072,0.07,1.594,0.209
c0.521,0.14,0.997,0.35,1.427,0.629c0.428,0.279,0.787,0.634,1.076,1.062s0.498,0.895,0.629,1.398
c0.13,0.503,0.191,1.025,0.182,1.565c-0.01,0.541-0.052,1.082-0.126,1.622l-0.559,3.355
c-0.075,0.485-0.191,0.956-0.35,1.412c-0.159,0.457-0.378,0.895-0.657,1.314s-0.61,0.797-0.992,1.132
c-0.383,0.335-0.802,0.611-1.259,0.825c-0.457,0.215-0.923,0.359-1.397,0.434
C424.076,139.771,423.605,139.809,423.139,139.809z M423.195,137.349c0.392,0,0.787-0.074,1.188-0.224
c0.4-0.149,0.75-0.382,1.048-0.699c0.299-0.316,0.522-0.671,0.672-1.062c0.148-0.391,0.261-0.783,0.335-1.174
l0.56-3.355c0.056-0.41,0.084-0.829,0.084-1.258c0-0.429-0.084-0.82-0.252-1.174
c-0.168-0.354-0.434-0.629-0.797-0.825s-0.751-0.293-1.16-0.293c-0.41,0-0.811,0.08-1.202,0.237
c-0.392,0.159-0.728,0.392-1.007,0.699s-0.499,0.657-0.657,1.048c-0.158,0.392-0.266,0.783-0.321,1.174l-0.56,3.355
c-0.056,0.279-0.089,0.559-0.098,0.839c-0.01,0.279,0.005,0.55,0.042,0.811c0.037,0.261,0.107,0.513,0.21,0.755
c0.102,0.243,0.247,0.457,0.434,0.643c0.186,0.187,0.409,0.317,0.671,0.392
C422.645,137.312,422.916,137.349,423.195,137.349z"/>
<path d="M437.063,139.809c-0.43,0-0.854-0.023-1.272-0.07c-0.419-0.047-0.825-0.131-1.216-0.251
c-0.392-0.121-0.765-0.289-1.119-0.503c-0.354-0.214-0.647-0.48-0.881-0.797c-0.232-0.317-0.4-0.68-0.503-1.09
s-0.116-0.83-0.042-1.258c0-0.037,0.005-0.074,0.014-0.112c0.01-0.037,0.023-0.074,0.042-0.112h2.797
c0,0.019,0,0.033,0,0.042s-0.01,0.023-0.028,0.042c-0.038,0.279,0.009,0.536,0.14,0.769
c0.13,0.233,0.308,0.415,0.531,0.545s0.471,0.219,0.741,0.266c0.27,0.047,0.535,0.07,0.797,0.07
c0.279,0,0.559-0.019,0.839-0.056c0.279-0.038,0.554-0.107,0.824-0.21c0.271-0.102,0.513-0.261,0.728-0.475
c0.214-0.214,0.35-0.461,0.405-0.741c0.056-0.317,0.004-0.61-0.154-0.881c-0.158-0.27-0.354-0.489-0.587-0.657
c-0.233-0.168-0.489-0.308-0.769-0.419c-0.28-0.112-0.56-0.224-0.839-0.335s-0.555-0.224-0.825-0.335
c-0.271-0.112-0.531-0.247-0.782-0.406c-0.252-0.158-0.494-0.331-0.728-0.517c-0.233-0.186-0.442-0.392-0.629-0.615
s-0.354-0.461-0.503-0.713c-0.149-0.251-0.266-0.521-0.35-0.811c-0.084-0.289-0.14-0.587-0.168-0.895
s-0.014-0.62,0.042-0.937c0.093-0.56,0.321-1.086,0.685-1.58c0.364-0.494,0.802-0.89,1.314-1.188
c0.513-0.298,1.053-0.499,1.622-0.601c0.568-0.103,1.132-0.154,1.691-0.154c0.429,0,0.848,0.023,1.258,0.07
c0.41,0.047,0.802,0.13,1.175,0.251c0.372,0.122,0.727,0.289,1.062,0.503c0.335,0.214,0.615,0.48,0.839,0.797
s0.377,0.676,0.461,1.076c0.084,0.401,0.098,0.807,0.042,1.216c-0.019,0.038-0.028,0.07-0.028,0.098
c0,0.028-0.01,0.061-0.027,0.098h-2.796c0-0.037,0-0.065,0-0.084c0.056-0.242,0.027-0.479-0.084-0.713
c-0.112-0.233-0.266-0.41-0.462-0.531c-0.195-0.121-0.419-0.205-0.671-0.251c-0.252-0.046-0.508-0.07-0.769-0.07
c-0.262,0-0.522,0.019-0.783,0.056c-0.261,0.038-0.513,0.112-0.755,0.224s-0.461,0.271-0.657,0.476
c-0.195,0.205-0.312,0.438-0.35,0.699c-0.056,0.317-0.01,0.611,0.14,0.881c0.149,0.271,0.341,0.494,0.573,0.671
c0.233,0.178,0.489,0.322,0.77,0.434c0.279,0.112,0.559,0.219,0.839,0.321c0.279,0.103,0.559,0.215,0.839,0.336
c0.279,0.121,0.545,0.256,0.797,0.405c0.251,0.149,0.489,0.317,0.713,0.503s0.429,0.391,0.615,0.615
c0.186,0.224,0.354,0.466,0.503,0.727c0.149,0.261,0.27,0.531,0.363,0.811c0.093,0.279,0.154,0.573,0.182,0.881
c0.028,0.307,0.015,0.62-0.042,0.937c-0.093,0.597-0.335,1.146-0.727,1.649c-0.392,0.503-0.857,0.895-1.398,1.174
c-0.54,0.28-1.104,0.471-1.691,0.573C438.223,139.758,437.64,139.809,437.063,139.809z"/>
<path d="M446.737,145.597c0.28-0.708,0.568-1.412,0.867-2.111c0.298-0.699,0.605-1.394,0.923-2.083l0.811-1.79
l-1.762-14.567h2.936l0.923,10.82l4.502-10.82h2.908l-9.171,20.55H446.737z"/>
<path d="M459.544,139.585l2.404-14.539h2.852l-0.308,1.845c0.168-0.298,0.368-0.583,0.602-0.853
c0.232-0.27,0.498-0.503,0.797-0.699c0.298-0.196,0.615-0.331,0.95-0.405c0.336-0.074,0.662-0.112,0.979-0.112
c0.484,0,0.96,0.079,1.426,0.237c0.466,0.159,0.867,0.396,1.203,0.713c0.335,0.317,0.596,0.694,0.782,1.132
s0.317,0.895,0.392,1.37c0.074,0.476,0.098,0.965,0.07,1.468c-0.028,0.503-0.08,0.997-0.154,1.482l-1.397,8.36
h-2.824l1.454-8.751c0.037-0.261,0.064-0.531,0.084-0.811c0.018-0.279,0.014-0.545-0.015-0.797
c-0.027-0.251-0.084-0.503-0.167-0.755c-0.084-0.251-0.21-0.47-0.378-0.657c-0.168-0.186-0.373-0.322-0.615-0.406
c-0.242-0.083-0.503-0.125-0.783-0.125c-0.354,0-0.713,0.07-1.076,0.209s-0.681,0.345-0.95,0.615
c-0.271,0.271-0.476,0.583-0.615,0.937c-0.14,0.354-0.238,0.708-0.294,1.062l-1.565,9.479H459.544z"/>
<path d="M479.031,139.809c-0.541,0-1.072-0.056-1.594-0.167c-0.521-0.112-0.997-0.308-1.426-0.587
s-0.788-0.633-1.076-1.062c-0.289-0.429-0.499-0.895-0.63-1.398c-0.13-0.503-0.19-1.025-0.182-1.566
c0.01-0.54,0.061-1.081,0.154-1.622l0.559-3.355c0.074-0.466,0.187-0.927,0.336-1.384
c0.149-0.457,0.358-0.895,0.629-1.314s0.592-0.797,0.965-1.132s0.783-0.61,1.23-0.825
c0.447-0.214,0.903-0.363,1.37-0.447c0.466-0.083,0.932-0.125,1.397-0.125c0.484,0,0.955,0.033,1.412,0.098
c0.457,0.065,0.89,0.187,1.3,0.363c0.41,0.178,0.783,0.411,1.119,0.699c0.335,0.289,0.605,0.629,0.811,1.021
s0.336,0.82,0.392,1.286c0.056,0.466,0.046,0.932-0.028,1.398c0,0.038-0.005,0.07-0.014,0.098
c-0.01,0.028-0.014,0.061-0.014,0.098h-2.824c0-0.019,0.004-0.032,0.014-0.042c0.01-0.009,0.014-0.023,0.014-0.042
c0.057-0.335,0.052-0.671-0.014-1.006s-0.2-0.62-0.405-0.853c-0.205-0.233-0.466-0.4-0.783-0.503
c-0.316-0.103-0.643-0.154-0.979-0.154c-0.392,0-0.782,0.08-1.174,0.237c-0.392,0.159-0.732,0.392-1.021,0.699
c-0.289,0.308-0.509,0.657-0.657,1.048c-0.149,0.392-0.252,0.783-0.308,1.174l-0.56,3.355
c-0.056,0.279-0.089,0.555-0.098,0.825c-0.01,0.271,0.005,0.541,0.042,0.811s0.103,0.527,0.195,0.769
c0.094,0.243,0.229,0.452,0.406,0.629c0.177,0.177,0.396,0.308,0.656,0.391c0.262,0.084,0.522,0.126,0.783,0.126
c0.392,0,0.778-0.079,1.16-0.238c0.382-0.158,0.713-0.387,0.993-0.685c0.279-0.298,0.503-0.633,0.671-1.006
c0.168-0.373,0.279-0.755,0.335-1.146h2.824c-0.094,0.466-0.224,0.933-0.392,1.398
c-0.167,0.466-0.382,0.914-0.643,1.342c-0.262,0.429-0.573,0.825-0.937,1.188c-0.364,0.363-0.765,0.671-1.202,0.922
c-0.438,0.252-0.896,0.429-1.37,0.531C479.996,139.758,479.515,139.809,479.031,139.809z"/>
</g>
</g>
<g class="st26">
<defs>
<polygon id="SVGID_53_" points="3,367 559.68,367 559.68,7 3,7 3,367 "/>
</defs>
<clipPath id="SVGID_54_">
<use xlink:href="#SVGID_53_" style="overflow:visible;"/>
</clipPath>
<g class="st28">
<defs>
<rect id="SVGID_55_" x="3" y="7" width="556.68" height="360"/>
</defs>
<clipPath id="SVGID_56_">
<use xlink:href="#SVGID_55_" style="overflow:visible;"/>
</clipPath>
<g class="st29">
<path d="M62.809,307.523c0.056,1.732,0.531,2.348,1.202,2.376c0.615,0.028,1.174-0.447,1.37-2.292l0.475-4.389
c-1.342,0.503-2.711,0.922-4.109,1.258l-0.531-2.265c1.706-0.392,3.327-0.923,4.892-1.565l0.531-4.976h-4.082
l0.251-2.517h4.109l0.363-3.521c-1.034,0.308-2.096,0.587-3.187,0.782l-0.643-2.208
c2.488-0.503,5.088-1.342,7.296-2.488l1.118,2.068c-0.699,0.364-1.454,0.699-2.208,1.007l-0.475,4.36h3.466
c0.196-2.906,0.447-5.674,0.755-7.938h2.208c-0.308,2.292-0.559,5.06-0.727,7.938h5.898l-0.251,2.517h-5.787
c-0.084,2.236-0.112,4.5-0.056,6.541c1.286-1.537,2.236-3.215,3.019-5.06l2.096,0.866
c-1.146,2.628-2.655,5.088-4.948,7.269c0.224,3.074,0.699,4.528,1.37,4.528c0.699,0,1.23-2.041,1.649-4.948
l2.069,0.28c-0.475,3.745-1.286,7.323-3.774,7.323c-2.152,0-3.047-2.18-3.438-5.423
c-0.866,0.644-1.845,1.23-2.907,1.817l-0.838-2.181c1.342-0.699,2.516-1.481,3.522-2.292
c-0.028-0.14-0.028-0.279-0.028-0.42c-0.112-2.543-0.084-5.423,0.028-8.302h-3.578l-0.419,3.857
c0.587-0.308,1.174-0.643,1.761-0.979l1.034,2.041c-1.006,0.587-2.013,1.146-3.075,1.621l-0.587,5.675
c-0.364,3.466-1.985,4.473-3.69,4.389c-2.069-0.084-3.131-1.789-3.271-4.417L62.809,307.523z M76.087,287.229
l1.845-1.202c0.95,1.286,2.013,3.047,2.907,4.92l-1.985,1.034C77.988,290.164,77.038,288.542,76.087,287.229z"/>
<path d="M82.549,309.928c1.146-2.181,1.901-4.39,2.432-6.598l2.236,0.615c-0.559,2.348-1.37,4.808-2.572,7.128
L82.549,309.928z M88.644,292.177c-0.671,2.879-1.51,5.395-2.768,7.743l-1.565-1.398
c1.342-2.18,2.46-4.584,3.215-7.491h-1.901l0.251-2.265h3.131l0.363-3.55h2.376l-0.392,3.55h2.208l-0.251,2.265
h-2.181l-0.168,1.565c0.755,0.699,1.426,1.397,2.236,2.265l-1.37,1.509c-0.391-0.503-0.754-0.95-1.118-1.369
l-0.754,7.017h-2.349L88.644,292.177z M98.316,306.853c-0.587,3.354-2.404,5.312-5.535,5.312
c-1.677,0-3.243-0.531-4.193-2.293c-0.671-1.229-0.922-3.158-0.671-5.591h2.376
c-0.195,1.594-0.111,2.712,0.196,3.662c0.392,1.342,1.258,1.789,2.32,1.789c1.649,0,2.823-1.09,3.187-3.466
L98.316,306.853z M93.507,306.908c-0.866-1.453-1.705-2.6-2.711-3.634l1.733-1.286
c1.035,1.09,1.929,2.181,2.74,3.55L93.507,306.908z M101.67,301.457h-8.526l1.565-15.207h6.346
c1.537,0,2.125,0.923,2.013,2.097L101.67,301.457z M99.545,299.249l0.28-2.433h-3.83l-0.252,2.433H99.545z
 M99.993,295.027l0.252-2.376h-3.83l-0.251,2.376H99.993z M100.44,290.862l0.252-2.403h-3.858l-0.224,2.403H100.44
z M99.993,311.157c-0.475-2.516-1.118-4.92-1.957-6.933l2.208-0.866c0.838,2.04,1.537,4.584,2.013,6.96
L99.993,311.157z"/>
<path d="M114.785,301.205c-0.671-1.621-1.426-3.074-2.236-4.416c-1.146,6.43-3.047,11.069-5.843,15.402
l-2.068-1.537c3.243-4.92,5.116-9.868,6.094-18.701l0.699-6.346h2.488l-0.699,6.373
c-0.056,0.447-0.084,0.867-0.14,1.286c1.229,1.929,2.516,3.997,3.746,6.653L114.785,301.205z M120.795,292.372
c-0.028,0.308-0.056,0.615-0.111,0.895c0.14,7.491,1.984,13.25,4.025,17.472l-2.265,1.369
c-1.342-2.795-2.572-6.82-3.131-11.153c-1.09,4.165-2.711,7.604-5.339,11.321l-2.041-1.649
c3.69-5.088,5.423-9.616,6.401-18.282l0.755-6.709h2.46L120.795,292.372z"/>
<path d="M131.142,286.306h14.592c1.314,0,2.18,0.755,2.041,2.097l-2.125,19.848
c-0.28,2.684-1.509,4.277-3.914,4.305c-2.125,0.028-3.55-1.481-3.97-3.521l2.32-0.923
c0.392,1.09,0.923,1.733,1.622,1.733c0.895,0,1.314-0.671,1.425-1.817l2.069-19.093h-11.853l-2.348,23.342h-2.516
L131.142,286.306z M133.407,306.685l1.174-10.874h5.87c1.342,0,2.041,0.839,1.929,1.9l-0.811,7.66h-5.646
l-0.14,1.313H133.407z M143.526,293.686h-9.588l0.28-2.376h9.588L143.526,293.686z M139.417,303.135l0.531-5.144
h-3.243l-0.559,5.144H139.417z"/>
<path d="M159.856,296.342h-8.247l0.28-2.433h2.376l0.727-6.82h2.432l-0.727,6.82h3.466l0.922-8.693h2.572
l-0.279,2.768h6.094l-0.251,2.46h-6.122l-0.363,3.466h7.268l-0.251,2.433h-7.324l-0.866,8.441
c2.096-1.732,3.662-3.829,4.808-6.262l2.153,1.175c-2.711,5.646-8.219,10.901-17.695,12.468l-0.503-2.488
c4.249-0.867,7.631-2.236,10.259-4.138h-1.677L159.856,296.342z M151.973,305.985l-1.622-1.845
c1.789-1.426,3.662-3.578,5.088-6.206l1.984,1.146C155.83,302.072,153.901,304.364,151.973,305.985z"/>
<path d="M181.105,301.988h-6.765l1.258-11.853h6.737l0.531-4.92h2.46l-0.531,4.92h4.808
c1.649,0,2.236,0.923,2.097,2.265l-1.034,9.588h-7.101l-1.09,10.287h-2.46L181.105,301.988z M181.357,299.584
l0.727-7.044h-4.333l-0.727,7.044H181.357z M188.485,299.584l0.783-7.044h-4.725l-0.727,7.044H188.485z"/>
</g>
</g>
<g class="st28">
<defs>
<polygon id="SVGID_57_" points="3,367 559.68,367 559.68,7 3,7 3,367 "/>
</defs>
<clipPath id="SVGID_58_">
<use xlink:href="#SVGID_57_" style="overflow:visible;"/>
</clipPath>
<g class="st30">
<defs>
<rect id="SVGID_59_" x="3" y="7" width="556.68" height="360"/>
</defs>
<clipPath id="SVGID_60_">
<use xlink:href="#SVGID_59_" style="overflow:visible;"/>
</clipPath>
<g class="st31">
<path d="M71.618,340.81c1.9-3.606,3.382-7.575,4.305-12.636h-2.181l0.252-2.348h2.991l0.335-3.326
c-0.754,0.195-1.537,0.363-2.292,0.503l-0.643-2.265c2.264-0.419,4.724-1.062,6.681-1.761l0.811,2.124
c-0.727,0.279-1.509,0.531-2.292,0.783l-0.419,3.941h2.069l-0.252,2.348h-2.068l-0.252,2.349
c0.839,0.866,1.594,1.733,2.46,2.795l-1.453,1.622c-0.447-0.644-0.867-1.202-1.286-1.733l-1.37,12.663h-2.181
l1.789-15.347c-0.838,4.305-1.873,7.938-3.522,11.377L71.618,340.81z M78.522,343.688
c2.152-0.782,4.109-1.845,5.759-3.131c-0.615-0.95-1.314-1.929-2.041-2.795c-0.615,0.503-1.286,0.979-2.013,1.481
l-1.397-1.817c3.466-2.152,5.479-4.584,6.458-6.933l2.208,0.447c-0.224,0.56-0.476,1.091-0.783,1.621l2.684,0.028
c1.454,0,2.32,1.007,1.873,2.376c-1.733,4.725-5.954,8.722-11.405,10.902L78.522,343.688z M79.976,329.684
c1.901-0.531,3.69-1.286,5.2-2.208c-0.531-0.839-1.09-1.678-1.677-2.433c-0.419,0.308-0.839,0.615-1.314,0.895
l-1.342-1.621c2.292-1.258,4.417-3.299,5.423-5.591l2.041,0.56c-0.28,0.614-0.587,1.174-0.923,1.732l2.796,0.028
c1.425,0,2.32,1.007,1.845,2.376c-1.621,3.41-5.675,6.598-10.762,8.246L79.976,329.684z M85.986,339.049
c1.23-1.259,2.181-2.684,2.879-4.222l-3.634-0.028c-0.391,0.504-0.838,0.979-1.313,1.454
C84.672,337.147,85.371,338.126,85.986,339.049z M86.908,326.273c1.202-0.95,2.153-2.041,2.824-3.243
l-3.886-0.027c-0.224,0.251-0.476,0.475-0.727,0.727C85.762,324.54,86.378,325.435,86.908,326.273z"/>
<path d="M100.89,330.047c2.013,4.333,0.866,10.539-3.606,10.763l-0.531,5.06h-2.348l2.739-26.165h4.752
c1.538,0,2.153,0.923,1.622,2.46L100.89,330.047z M97.536,338.405c2.32-0.392,2.907-4.333,1.174-8.219l2.46-8.106
h-1.957L97.536,338.405z M101.868,344.359l-1.817-1.229c1.37-2.041,2.292-4.249,3.047-6.569l1.929,0.643
C104.3,339.607,103.322,342.012,101.868,344.359z M101.868,328.034c2.991-2.32,5.004-5.339,6.625-9.196
l2.068,0.782c-0.168,0.447-0.335,0.866-0.531,1.313c0.811,2.544,2.572,5.256,4.612,7.156l-1.453,1.622
c-0.56-0.447-1.062-0.923-1.565-1.481l-0.14,1.453h-2.125l-0.279,3.047h4.165l-0.251,2.32h-4.137l-0.727,7.604
c-0.251,2.572-1.481,3.326-2.823,3.326c-1.286,0-2.152-0.95-2.488-2.459l1.901-0.644
c0.167,0.587,0.363,0.811,0.587,0.811c0.308,0,0.503-0.363,0.587-1.286l0.699-7.352h-4.193l0.251-2.32h4.165
l0.308-3.047h-2.348l0.14-1.369c-0.476,0.475-0.979,0.895-1.51,1.313L101.868,328.034z M111.009,327.476
c-0.922-1.202-1.677-2.6-2.236-4.081c-0.867,1.509-1.873,2.851-3.019,4.081H111.009z M113.162,344.052
l-2.013,0.699c-0.811-2.571-1.313-5.172-1.649-7.38l1.985-0.476C111.848,339.104,112.351,341.704,113.162,344.052
z"/>
<path d="M116.576,345.533l2.32-22.251h1.677c0.671-1.37,1.23-2.739,1.621-4.138l2.348,0.42
c-0.391,1.258-0.811,2.488-1.37,3.718h1.09c1.397,0,2.068,0.979,1.929,2.292l-1.957,17.835h-5.088l-0.224,2.124
H116.576z M122.195,341.061l0.755-6.988h-2.823l-0.727,6.988H122.195z M123.201,331.864l0.671-6.233h-2.879
l-0.643,6.233H123.201z M129.938,343.409c1.035,0,1.789-0.615,2.153-4.109l1.425-13.586h-3.271
c-0.615,1.314-1.313,2.628-2.068,3.858l-2.069-1.146c1.845-3.02,3.299-6.485,4.221-9.421l2.264,0.615
c-0.335,1.146-0.783,2.433-1.342,3.746h2.572c1.398,0,2.376,0.782,2.236,2.152l-1.537,14.731
c-0.531,5.088-2.936,5.703-4.668,5.703c-2.041,0-3.914-1.845-4.109-4.417l2.292-0.419
C128.345,342.627,128.764,343.409,129.938,343.409z M128.233,338.321c-0.308-2.684-0.783-5.031-1.37-7.044
l2.264-0.671c0.615,2.04,1.146,4.417,1.454,7.044L128.233,338.321z"/>
<path d="M158.903,324.903h-2.684c-1.37,4.333-3.075,8.023-5.255,11.182c1.817,2.656,4.081,5.088,6.933,7.464
l-1.622,2.236c-2.879-2.348-5.171-4.836-7.016-7.464c-2.516,3.02-5.535,5.479-9.253,7.548l-1.37-2.432
c3.69-2.069,6.709-4.529,9.113-7.464c-2.013-3.467-3.299-7.156-4.081-11.07h-2.544l0.279-2.544h7.604l0.363-3.55
h2.572l-0.364,3.55h7.604L158.903,324.903z M149.455,333.598c1.677-2.544,2.963-5.424,3.941-8.694h-7.044
C147.023,328.146,148.029,330.998,149.455,333.598z"/>
<path d="M162.821,345.869l1.761-15.738c-0.587,0.979-1.174,1.984-1.789,2.936l-1.817-1.426
c2.712-3.802,4.78-8.498,6.29-12.887l2.152,0.838c-0.559,1.678-1.23,3.383-2.013,5.061l-2.208,21.217H162.821z
 M173.192,335.358h-5.759l0.28-2.488h5.73l0.671-6.429h-2.879c-0.531,1.174-1.174,2.348-1.873,3.466l-1.706-1.426
c1.593-2.46,2.74-5.228,3.438-8.246l2.041,0.476c-0.251,1.117-0.559,2.18-0.922,3.242h2.18l0.531-5.144h2.404
l-0.531,5.144h4.528l-0.251,2.488h-4.556l-0.671,6.429h4.892l-0.251,2.488h-4.892l-1.118,10.511h-2.404
L173.192,335.358z"/>
</g>
</g>
<g class="st30">
<defs>
<polygon id="SVGID_61_" points="3,367 559.68,367 559.68,7 3,7 3,367 "/>
</defs>
<clipPath id="SVGID_62_">
<use xlink:href="#SVGID_61_" style="overflow:visible;"/>
</clipPath>
<g class="st32">
<defs>
<rect id="SVGID_63_" x="3" y="7" width="556.68" height="360"/>
</defs>
<clipPath id="SVGID_64_">
<use xlink:href="#SVGID_63_" style="overflow:visible;"/>
</clipPath>
<g class="st33">
<path d="M342.471,310.878l2.404-17.052h2.712l-2.404,17.052H342.471z M345.072,290.08
c0.167-1.091,0.811-1.901,1.956-1.901c1.062,0,1.622,0.811,1.454,1.901c-0.168,1.118-0.811,1.9-1.957,1.9
C345.462,291.98,344.904,291.198,345.072,290.08z"/>
<path d="M353.906,311.157c-4.305,0-5.758-3.662-4.696-11.517c1.091-7.995,3.662-11.629,7.939-11.629
c2.795,0,4.193,1.984,4.752,4.695l-2.879,0.615c-0.279-1.565-0.979-2.516-2.181-2.516
c-2.684,0-3.69,2.712-4.612,8.834c-0.923,6.037-0.392,8.861,2.208,8.861c1.426,0,2.433-1.118,3.243-3.243
l2.684,0.419C359.162,309.424,357.093,311.157,353.906,311.157z"/>
<path d="M361.232,310.878l3.327-23.481h2.711l-3.326,23.481H361.232z"/>
<path d="M367.44,302.38c0.782-6.066,2.795-8.834,6.346-8.834c3.662,0,4.947,2.768,4.165,8.834
c-0.783,6.01-2.796,8.777-6.374,8.777C367.943,311.157,366.657,308.39,367.44,302.38z M375.155,302.38
c0.615-4.333,0.112-6.317-1.593-6.317c-1.649,0-2.712,1.984-3.327,6.317c-0.615,4.305-0.14,6.262,1.538,6.262
C373.478,308.642,374.54,306.685,375.155,302.38z"/>
<path d="M390.644,293.826l-2.433,17.052h-2.544l0.14-1.649c-0.922,1.397-2.124,1.929-3.214,1.929
c-2.013,0-3.606-1.313-3.075-5.032l1.733-12.299h2.739l-1.705,11.852c-0.279,1.957,0.195,2.964,1.426,2.964
c1.201,0,2.124-1.23,2.543-2.991l1.678-11.824H390.644z"/>
<path d="M398.11,310.878l0.14-1.538c-0.839,1.118-1.873,1.817-2.991,1.817c-2.488,0-4.529-2.152-3.522-9.225
c0.811-5.675,2.991-8.358,5.73-8.358c1.23,0,2.152,0.587,2.712,1.705l1.118-7.883h2.711l-3.326,23.481H398.11z
 M395.985,308.642c1.37,0,2.348-1.678,2.768-3.438l0.895-6.178c0.027-1.733-0.671-2.936-1.929-2.936
c-1.762,0-2.768,2.796-3.215,6.15C394.028,305.846,394.001,308.642,395.985,308.642z"/>
</g>
</g>
<g class="st32">
<defs>
<polygon id="SVGID_65_" points="3,367 559.68,367 559.68,7 3,7 3,367 "/>
</defs>
<clipPath id="SVGID_66_">
<use xlink:href="#SVGID_65_" style="overflow:visible;"/>
</clipPath>
<g class="st34">
<defs>
<rect id="SVGID_67_" x="3" y="7" width="556.68" height="360"/>
</defs>
<clipPath id="SVGID_68_">
<use xlink:href="#SVGID_67_" style="overflow:visible;"/>
</clipPath>
<g class="st35">
<path d="M421.711,309.787c1.174,0,2.068-0.838,2.236-2.543l1.845-17.5h-13.754l0.28-2.627h18.338l-0.28,2.627
h-1.984l-1.789,17.5c-0.336,3.326-2.068,5.283-4.892,5.283c-2.404,0-3.914-1.538-4.529-3.914l2.46-0.922
C420.117,309.033,420.676,309.787,421.711,309.787z M412.066,306.461l1.397-13.362h6.737
c1.705,0,2.348,0.979,2.181,2.404l-1.007,9.085h-6.681l-0.196,1.873H412.066z M419.083,302.044l0.699-6.429
h-4.138l-0.671,6.429H419.083z"/>
<path d="M432.84,306.069c0.643-0.308,1.286-0.643,1.929-0.979l1.985-18.925h2.571l-1.817,17.332
c1.314-0.839,2.628-1.733,3.886-2.684l1.258,2.124c-2.767,2.041-5.675,3.886-8.749,5.396L432.84,306.069z
 M435.887,310.318c8.554-4.78,11.294-10.818,12.076-18.617l0.615-6.485h2.544l-0.615,6.569
c-0.335,3.299-0.979,6.401-2.265,9.28c1.538,3.131,2.712,6.514,3.494,10.176l-2.348,0.866
c-0.699-2.991-1.565-5.646-2.684-8.19c-2.013,3.187-5.031,6.066-9.477,8.61L435.887,310.318z M443.072,295.615
c-0.755-2.349-1.901-4.725-2.796-6.15l2.209-1.23c1.034,1.622,2.04,3.803,2.851,6.066L443.072,295.615z"/>
<path d="M464.097,301.205c-0.671-1.621-1.425-3.074-2.236-4.416c-1.146,6.43-3.047,11.069-5.842,15.402
l-2.069-1.537c3.243-4.92,5.116-9.868,6.095-18.701l0.698-6.346h2.488l-0.699,6.373
c-0.056,0.447-0.084,0.867-0.14,1.286c1.23,1.929,2.517,3.997,3.746,6.653L464.097,301.205z M470.108,292.372
c-0.028,0.308-0.057,0.615-0.112,0.895c0.14,7.491,1.985,13.25,4.025,17.472l-2.264,1.369
c-1.342-2.795-2.572-6.82-3.131-11.153c-1.091,4.165-2.712,7.604-5.34,11.321l-2.04-1.649
c3.689-5.088,5.423-9.616,6.401-18.282l0.755-6.709h2.46L470.108,292.372z"/>
<path d="M480.456,286.306h14.592c1.313,0,2.181,0.755,2.041,2.097l-2.125,19.848
c-0.279,2.684-1.51,4.277-3.914,4.305c-2.124,0.028-3.55-1.481-3.969-3.521l2.32-0.923
c0.391,1.09,0.922,1.733,1.621,1.733c0.895,0,1.313-0.671,1.426-1.817l2.068-19.093h-11.853l-2.349,23.342
h-2.516L480.456,286.306z M482.719,306.685l1.174-10.874h5.871c1.342,0,2.04,0.839,1.929,1.9l-0.811,7.66
h-5.647l-0.14,1.313H482.719z M492.838,293.686h-9.588l0.279-2.376h9.589L492.838,293.686z M488.73,303.135
l0.53-5.144h-3.242l-0.559,5.144H488.73z"/>
<path d="M509.168,296.342h-8.246l0.279-2.433h2.376l0.727-6.82h2.433l-0.728,6.82h3.467l0.923-8.693h2.571
l-0.279,2.768h6.094l-0.252,2.46h-6.121l-0.363,3.466h7.268l-0.252,2.433h-7.323l-0.867,8.441
c2.097-1.732,3.662-3.829,4.809-6.262l2.152,1.175c-2.712,5.646-8.219,10.901-17.695,12.468l-0.503-2.488
c4.249-0.867,7.632-2.236,10.259-4.138h-1.677L509.168,296.342z M501.285,305.985l-1.621-1.845
c1.789-1.426,3.661-3.578,5.087-6.206l1.985,1.146C505.142,302.072,503.213,304.364,501.285,305.985z"/>
</g>
</g>
<g class="st34">
<defs>
<polygon id="SVGID_69_" points="3,367 559.68,367 559.68,7 3,7 3,367 "/>
</defs>
<clipPath id="SVGID_70_">
<use xlink:href="#SVGID_69_" style="overflow:visible;"/>
</clipPath>
<g class="st36">
<defs>
<rect id="SVGID_71_" x="3" y="7" width="556.68" height="360"/>
</defs>
<clipPath id="SVGID_72_">
<use xlink:href="#SVGID_71_" style="overflow:visible;"/>
</clipPath>
<g class="st37">
<path d="M374.329,335.582h-6.766l1.259-11.853h6.736l0.531-4.92h2.46l-0.531,4.92h4.809
c1.649,0,2.236,0.923,2.097,2.265l-1.034,9.588h-7.101l-1.091,10.287h-2.46L374.329,335.582z M374.58,333.178
l0.728-7.044h-4.333l-0.728,7.044H374.58z M381.709,333.178l0.782-7.044h-4.724l-0.728,7.044H381.709z"/>
<path d="M387.723,340.81c1.9-3.606,3.382-7.575,4.305-12.636h-2.181l0.252-2.348h2.991l0.335-3.326
c-0.755,0.195-1.537,0.363-2.292,0.503l-0.643-2.265c2.264-0.419,4.724-1.062,6.681-1.761l0.811,2.124
c-0.727,0.279-1.51,0.531-2.292,0.783l-0.42,3.941h2.069l-0.252,2.348h-2.068l-0.252,2.349
c0.839,0.866,1.594,1.733,2.46,2.795l-1.453,1.622c-0.447-0.644-0.867-1.202-1.286-1.733l-1.37,12.663h-2.18
l1.789-15.347c-0.839,4.305-1.873,7.938-3.522,11.377L387.723,340.81z M394.628,343.688
c2.152-0.782,4.109-1.845,5.759-3.131c-0.615-0.95-1.313-1.929-2.041-2.795
c-0.614,0.503-1.286,0.979-2.013,1.481l-1.397-1.817c3.466-2.152,5.479-4.584,6.457-6.933l2.209,0.447
c-0.224,0.56-0.476,1.091-0.783,1.621l2.684,0.028c1.454,0,2.32,1.007,1.873,2.376
c-1.733,4.725-5.954,8.722-11.405,10.902L394.628,343.688z M396.082,329.684
c1.9-0.531,3.689-1.286,5.199-2.208c-0.531-0.839-1.091-1.678-1.678-2.433
c-0.419,0.308-0.838,0.615-1.313,0.895l-1.342-1.621c2.292-1.258,4.417-3.299,5.423-5.591l2.041,0.56
c-0.279,0.614-0.587,1.174-0.923,1.732l2.796,0.028c1.426,0,2.32,1.007,1.845,2.376
c-1.621,3.41-5.675,6.598-10.763,8.246L396.082,329.684z M402.091,339.049
c1.229-1.259,2.181-2.684,2.879-4.222l-3.634-0.028c-0.392,0.504-0.839,0.979-1.313,1.454
C400.778,337.147,401.476,338.126,402.091,339.049z M403.014,326.273c1.201-0.95,2.152-2.041,2.823-3.243
l-3.886-0.027c-0.224,0.251-0.476,0.475-0.727,0.727C401.868,324.54,402.483,325.435,403.014,326.273z"/>
<path d="M416.996,330.047c2.013,4.333,0.866,10.539-3.606,10.763l-0.531,5.06h-2.348l2.739-26.165h4.752
c1.538,0,2.152,0.923,1.622,2.46L416.996,330.047z M413.641,338.405c2.32-0.392,2.907-4.333,1.174-8.219
l2.46-8.106h-1.957L413.641,338.405z M417.974,344.359l-1.817-1.229c1.37-2.041,2.292-4.249,3.047-6.569
l1.929,0.643C420.406,339.607,419.427,342.012,417.974,344.359z M417.974,328.034
c2.991-2.32,5.003-5.339,6.625-9.196l2.068,0.782c-0.168,0.447-0.335,0.866-0.531,1.313
c0.811,2.544,2.572,5.256,4.612,7.156l-1.453,1.622c-0.56-0.447-1.062-0.923-1.565-1.481l-0.14,1.453h-2.125
l-0.279,3.047h4.165l-0.252,2.32h-4.137l-0.727,7.604c-0.252,2.572-1.481,3.326-2.823,3.326
c-1.286,0-2.153-0.95-2.488-2.459l1.9-0.644c0.168,0.587,0.363,0.811,0.588,0.811
c0.307,0,0.503-0.363,0.587-1.286l0.698-7.352h-4.193l0.252-2.32h4.165l0.308-3.047h-2.348l0.14-1.369
c-0.476,0.475-0.979,0.895-1.51,1.313L417.974,328.034z M427.115,327.476c-0.923-1.202-1.677-2.6-2.236-4.081
c-0.866,1.509-1.873,2.851-3.019,4.081H427.115z M429.267,344.052l-2.013,0.699
c-0.811-2.571-1.313-5.172-1.649-7.38l1.985-0.476C427.954,339.104,428.457,341.704,429.267,344.052z"/>
<path d="M432.682,345.533l2.32-22.251h1.677c0.671-1.37,1.23-2.739,1.622-4.138l2.348,0.42
c-0.392,1.258-0.811,2.488-1.369,3.718h1.09c1.397,0,2.068,0.979,1.929,2.292l-1.957,17.835h-5.087
l-0.225,2.124H432.682z M438.301,341.061l0.754-6.988h-2.823l-0.727,6.988H438.301z M439.307,331.864
l0.671-6.233h-2.879l-0.644,6.233H439.307z M446.045,343.409c1.034,0,1.789-0.615,2.152-4.109l1.426-13.586
h-3.271c-0.615,1.314-1.314,2.628-2.069,3.858l-2.068-1.146c1.845-3.02,3.299-6.485,4.222-9.421l2.264,0.615
c-0.335,1.146-0.782,2.433-1.342,3.746h2.572c1.397,0,2.376,0.782,2.236,2.152l-1.538,14.731
c-0.531,5.088-2.935,5.703-4.668,5.703c-2.041,0-3.914-1.845-4.109-4.417l2.292-0.419
C444.451,342.627,444.87,343.409,446.045,343.409z M444.339,338.321c-0.308-2.684-0.783-5.031-1.37-7.044
l2.265-0.671c0.614,2.04,1.146,4.417,1.453,7.044L444.339,338.321z"/>
<path d="M475.008,324.903h-2.684c-1.37,4.333-3.075,8.023-5.256,11.182c1.817,2.656,4.082,5.088,6.933,7.464
l-1.621,2.236c-2.879-2.348-5.171-4.836-7.017-7.464c-2.516,3.02-5.535,5.479-9.253,7.548l-1.369-2.432
c3.689-2.069,6.709-4.529,9.112-7.464c-2.012-3.467-3.298-7.156-4.081-11.07h-2.544l0.28-2.544h7.604
l0.363-3.55h2.571l-0.363,3.55h7.604L475.008,324.903z M465.56,333.598c1.677-2.544,2.963-5.424,3.941-8.694
h-7.045C463.128,328.146,464.134,330.998,465.56,333.598z"/>
<path d="M478.926,345.869l1.761-15.738c-0.587,0.979-1.174,1.984-1.789,2.936l-1.816-1.426
c2.711-3.802,4.78-8.498,6.289-12.887l2.153,0.838c-0.56,1.678-1.23,3.383-2.014,5.061l-2.208,21.217H478.926z
 M489.297,335.358h-5.759l0.279-2.488h5.731l0.67-6.429h-2.879c-0.531,1.174-1.174,2.348-1.873,3.466
l-1.705-1.426c1.594-2.46,2.739-5.228,3.438-8.246l2.041,0.476c-0.252,1.117-0.56,2.18-0.923,3.242h2.181
l0.531-5.144h2.403l-0.531,5.144h4.529l-0.252,2.488h-4.557l-0.671,6.429h4.893l-0.252,2.488h-4.892
l-1.118,10.511h-2.404L489.297,335.358z"/>
</g>
</g>
</g>
</g>
</g>
</g>
</g>
</g>
</g>
</g>
</g>
</g>
</g>
</g>
</g>
</g>
</g>
</g>
</g>
</g>
</g>
</svg>
