<svg xmlns="http://www.w3.org/2000/svg" viewBox="0 0 135.31 117.1"><defs><style>.cls-1{fill:none;stroke:#000;stroke-linecap:round;stroke-linejoin:round;stroke-width:1.82px;}</style></defs><g id="emwave_2" data-name="emwave 2"><g id="emwave_1-2" data-name="emwave 1"><path d="M.53,99l0-1.76v0l.12-.84v0l.16-.8v0l.22-.58,0,0,.24-.38-.08.07.2-.15-.08,0,.22-.09-.1,0,.2,0H1.54l.31,0-.15,0,.44.33-.05-.07.53.7v0l.5.77.7.93,0,0,.72,1.13h0l.69,1.24.58,1.3,0-.05L6.1,102l.31,1,0,0,.34.65.05.07.28.31a.25.25,0,0,0,.27.08l.17,0a.23.23,0,0,0,.19-.24.28.28,0,0,0-.19-.26l-.17,0,.19.12-.26-.36,0,.08L7,102.84l0,0-.29-1-.33-1.18,0,0-.57-1.29,0,0L5.11,98l0,0-.72-1.13v0l-.7-.93,0,0-.53-.74v0l-.53-.67-.07,0-.43-.36L2,94l-.31-.07H1.54l-.17,0-.1,0-.21.1-.1,0-.19.16-.05.1-.24.38,0,.08-.2.57v0l-.16.79v0L0,97.18v0l0,1.73a.25.25,0,0,0,.26.27A.32.32,0,0,0,.53,99Z"/><path d="M5.74,93.46l-.92,1.75v0l-.5,1.24v0L3.86,98v0l-.4,1.59L3.17,101v0l-.24,1.29-.17,1.08-.14.77a.29.29,0,0,0,.24.34.27.27,0,0,0,.33-.22l.19-.74v0l.22-1.08.22-1.32v0l.28-1.51v0l.39-1.56v0l.45-1.46,0,0,.48-1.24v0l.82-1.8a.25.25,0,0,0-.12-.36A.26.26,0,0,0,5.74,93.46Z"/><path d="M124.13,68.57l0,1.59v0l0,1.13.05,1.2.1,1.2v0l.12,1.06v0l.14.88v0l.19.77.17.64,0,0,.21.51,0,0,.14.22v0l.1.15,0,.07,0-.07v0a.4.4,0,0,0,.29.26.43.43,0,0,0,.38-.12l0,0h0l0-.07.12-.17h0l.12-.19h0l.14-.17,0,0,.09-.12.1-.12h0l0-.1,0,0,0-.08-.07.1,0,0,.1-.12,0,0,0,0,0-.07,0-.15,0,0,.09-.21.12-.24.1-.22.07-.17,0-.14v0l.12-.28.12-.36v0l.14-.51,0,0,.14-.55.1-.53v0l.12-.56v0l.07-.58v0l.09-.62v0l.1-.57v0l0-.55.05-.55v0l0-.57V67.85a.44.44,0,0,0-.26-.38.41.41,0,0,0-.46.07.45.45,0,0,0-.1.48l.05.07,0,0,0,.15v0l.19.48,0-.07.12.82,0,0,.09,1.08.05,1.32,0,1.54.08,1.58.07,1.54.09,1.44.1,1.39.1,1.27.12,1.15.07,1.06.07,1,.07,1v0l.05,1.13,0,1.1V88l0,1v0l-.05.82,0-.1-.19.68.07-.12-.31.5.09-.12-.43.36.12-.07-.53.19.15,0-.68,0,.17,0-.67-.19.17.07-.67-.51.12.12-.63-.91.07.12-.4-1.27,0,.12-.12-1.46v.09l.22-1.37,0,.15.62-1.37,0,.1,1.06-1.35,0,0,1.37-1.34v0l1.51-1.37,0,0,1.56-1.44L133.2,78v0l1.2-1.2.84-1a.34.34,0,0,0,0-.44.36.36,0,0,0-.46,0l-.91.86-1.25,1.16-1.49,1.32h0l-1.56,1.44L128,81.46l0,0-1.37,1.35,0,0-1.06,1.32,0,.12-.62,1.34,0,.12-.19,1.37,0,.09.1,1.49,0,.1.41,1.27,0,.12.6.94.12.09.67.51.17.07.67.17.15,0,.67,0,.12,0,.53-.22.12-.07.43-.36.12-.12.29-.5.07-.12.17-.68,0-.09,0-.82v0l0-1v-1l0-1.11v0l-.08-1.1-.07-1-.07-1-.07-1.06-.12-1.15-.1-1.27-.09-1.4v0l-.12-1.44-.1-1.51-.07-1.59,0-1.51v0l-.05-1.35v0L129,69.29v0l-.12-.82v-.07l-.2-.48v0l0-.15,0,.1,0,0v0a.45.45,0,0,0-.46-.31.44.44,0,0,0-.36.43v1.66l0,.55v0l0,.55,0,.55v0l-.07.6-.1.62-.09.6-.1.55-.12.53v0l-.12.55-.14.5v0l-.12.38v0l-.1.29-.07.14-.05.17-.07.19-.12.24v0l-.1.21,0,0-.05.14v0l0,.07,0,0v.17l0-.24,0,.07,0,0-.07.1,0,0-.12.12v0l-.07.1,0,0-.15.17-.14.19-.12.15,0,.07,0,0a.36.36,0,0,0,0,.48.43.43,0,0,0,.48.12.42.42,0,0,0,.19-.48l0,0-.05-.07,0-.1h0l-.09-.14-.12-.24v.07l-.22-.53,0,0-.2-.65v0l-.19-.74-.14-.89v0l-.15-1.08v0l-.09-1.2-.07-1.2,0-1.13-.12-1.56a.24.24,0,0,0-.24-.24A.24.24,0,0,0,124.13,68.57Z"/><path d="M60.36,1.92l-.62-1A.38.38,0,0,0,59.26.8a.37.37,0,0,0-.22.43.37.37,0,0,0,.36.33h.05l.36,0,.65,0h0l.77-.1,1-.14h0l1.08-.17h0L64.42,1l0,0,1-.1.82-.05h1.46a.43.43,0,0,0,.43-.33A.46.46,0,0,0,67.85,0a.42.42,0,0,0-.51.17l0,.07,0,.09L67.08.6l.07-.09-.5.48,0,0-.75.6-.84.65-.89.72v0l-.76.62-.7.51h0l-.5.33h0L62,4.59l0,0-.12.1,0,0,0,0a.46.46,0,0,0-.12.31l0,0v.07A.41.41,0,0,0,62,5.5l.36,0,.58.07.67.1.79.09.77.1L66,6h0l.82.14.72.15h0l.72.12.58.09.45.07h0l.33.05.1,0-.07,0h0a.35.35,0,0,0,.43-.09.47.47,0,0,0,.1-.46.46.46,0,0,0-.38-.26h0l-.39,0h0l-.51,0L68,5.91a.3.3,0,0,0-.26.29.27.27,0,0,0,.26.28l.79,0h0l.5.07h0l.38.05h0l.08,0a.45.45,0,0,0,.43-.15.4.4,0,0,0,.05-.45.43.43,0,0,0-.41-.24h0l-.31,0L69,5.72l-.58-.08-.72-.12h0L67,5.38l-.79-.14h0l-.81-.12L64.54,5l-.8-.1-.69-.09-.55-.07-.34,0,.34.45V5.07l-.12.26,0,0,.1-.1,0,0L62.76,5l0,0,.5-.33v0l.7-.5.79-.6.91-.72.82-.67.74-.55,0,0,.48-.48,0-.05L67.94.8h0l0-.1,0-.07a.34.34,0,0,0,0-.41A.41.41,0,0,0,67.68,0h-.82l-.67,0-.84.05h0l-1,.07h0L63.22.32h0L62.11.48l-1,.15h0l-.8.09h0l-.65.05H59.4A.47.47,0,0,0,59,1a.37.37,0,0,0,.1.41l.76.86a.27.27,0,0,0,.39.05A.28.28,0,0,0,60.36,1.92Z"/><line class="cls-1" x1="56.14" y1="74.91" x2="56.14" y2="7.2"/><polyline class="cls-1" points="53.28 12.94 56.14 7.2 59.02 12.94"/><line class="cls-1" x1="56.18" y1="74.93" x2="111.67" y2="74.93"/><polyline class="cls-1" points="105.94 72.05 111.67 74.93 105.94 77.79"/><line class="cls-1" x1="55.73" y1="75.56" x2="6.89" y2="116.19"/><polyline class="cls-1" points="13.18 114.77 6.89 116.19 9.55 110.36"/><path d="M21.17,60.87l-.31,1.39v0l-.1.7-.1.72-.14.91v0l-.17.91v0l-.24,1v0l-.24.94-.29.86-.19.7v0l-.17.55v0l-.07.38,0,0,0,.19v.15l0,.07a.42.42,0,0,0,.41.24.38.38,0,0,0,.28-.41l0-.12,0,0,0-.43v0l0-.6,0-.72,0-.79v-.82a.26.26,0,0,0-.24-.26.26.26,0,0,0-.27.24l0,.81-.08.8,0,.69v0l0,.6v.38l0,.12a.36.36,0,0,0,.26.41.42.42,0,0,0,.41-.24l0-.07v0l.05-.19.07-.41v0l.17-.56v0l.19-.72.29-.87v0l.24-.91v0l.22-1v0l.17-.91.12-.94.09-.72.07-.67L21.77,61a.3.3,0,0,0-.24-.36A.3.3,0,0,0,21.17,60.87Z"/><path d="M20.45,61.18l1.41-.31h0l.4,0h0l.5,0h.48l.44.07-.1,0,.46.24-.1-.07.36.33,0-.07.29.46-.05-.1.15.41,0-.07.07.48v-.1l-.07.58.05-.1-.22.48.08-.12-.41.46.07-.05L23.5,64l.07,0-.67.29,0,0-.67.19h.07l-.6.07h-.69a.4.4,0,1,0,.14.77l.1-.05,0,0v0h0l.31-.12h-.07L22,65,22,65l.8-.12,0,0,.84-.07h-.05l.82,0h-.05L25,65,25,65l.65.29-.1,0,.36.36-.05-.1.24.48,0-.09.07.5v-.12L26,66.8l.05-.15-.34.53.07-.12-.6.48.08-.05-.75.41,0,0-.77.33.05,0-.84.24,0,0-.76.1.07,0-.72,0,.09,0L21,68.21a.31.31,0,0,0-.41.19.34.34,0,0,0,.17.44l.77.33h.1l.72.1.09,0,.75-.07.09,0,.84-.22.05,0,.79-.34,0,0,.74-.41.05,0,.57-.48.1-.1.31-.52.05-.15.07-.6,0-.07-.1-.5,0-.1-.24-.48L26.4,65,26,64.66l-.07-.07-.67-.29-.07,0-.75-.14h-.05l-.79,0h-.05l-.84,0h0l-.77.09-.05,0-.46.09-.07,0-.31.12-.05,0-.09.05a.39.39,0,0,0-.2.43.39.39,0,0,0,.39.31h.33l.44,0h0l.58-.07h.07l.65-.22.05,0,.65-.29.09,0,.6-.41.07-.07L25,63.7l0-.12.19-.48,0-.12,0-.55v-.1l-.07-.48,0-.07-.15-.41,0-.07-.29-.43-.05,0-.36-.34-.07-.07-.48-.24-.09,0-.44-.07h-.67l-.5.07h0l-.38.07,0,0-1.37.46a.25.25,0,0,0-.16.29A.26.26,0,0,0,20.45,61.18Z"/><path d="M19.39,56.57H21l.84,0h0l1,0,1,0h1.08l1.06.07h0l1,.1h0l.79.12h0l.67.07h0l.55,0h.38l.22,0,0,0,.09,0a.43.43,0,0,0,.46-.28.45.45,0,0,0-.1-.53L29.83,56l-.21-.19-.27-.24v0l-.29-.24,0,0L28.78,55h0l-.29-.19,0,0-.19-.12h0l-.12-.08,0,0-.08,0a.51.51,0,0,0-.36,0,.41.41,0,0,0-.19.24.46.46,0,0,0,.05.31l.1.12.09.19,0,.05.19.22.05,0,.24.19.05,0,.36.19.05,0,.24.1h0l.29.12,0,0,.24.1-.07,0,.17.09,0,0,0,0,0,0v0l-.05-.45v0l-.07.12,0,.12v0l-.05.17,0-.07-.14.31,0,0L29,57.2v0l-.36.58,0,0-.46.63,0,0-.52.6,0,0-.5.48a.29.29,0,0,0,0,.38.27.27,0,0,0,.39.05l.57-.41.05,0,.55-.55,0,0,.5-.58,0,0,.36-.55,0-.05.24-.41,0-.05.15-.31,0-.07,0-.19v-.31a.31.31,0,0,0-.26-.27l-.05,0,.1,0-.05,0-.14-.07,0,0-.24-.09,0,0-.28-.09,0,0-.24-.12,0,0-.36-.19.05.05-.24-.22.05,0L28.25,55l.05.07-.1-.19,0,0,0-.16a.43.43,0,0,0-.39-.27.38.38,0,0,0-.17.72l0,0,0,.05.12.09.2.15h0l.29.21h0l.26.24v0l.26.26.27.24.21.22.12.12a.51.51,0,0,0,.6,0,.46.46,0,0,0,.17-.53.45.45,0,0,0-.48-.31H29l-.55-.05h0l-.69-.07L27,55.71h0l-1-.1h0l-1.05-.07h0l-1.12,0-1,0-1,0-.84.07H19.42a.47.47,0,0,0-.46.43A.43.43,0,0,0,19.39,56.57Z"/><path d="M13.15,84.48l.19-.09L14,84.1l.74-.36h0l.89-.5,1-.58,1.2-.72h0l1.41-.84,1.68-1,2-1.27v0l2.2-1.51h0l2.3-1.63L29.88,74l2-1.42,1.7-1.13L35,70.61h0l1-.55h0l.67-.36v0l.44-.21h0l.29-.1.14-.07.15,0,0,0,.12,0,0,0,0,0,0-.05.05,0,0,0-.07,0,.07,0,.15-.12v0a.33.33,0,0,0,0-.31.35.35,0,0,0-.19-.19l0,0h0l-.1,0-.12,0-.14-.07v0l-.24-.09,0,0L37,68h0l-.31-.1-.29-.07h0l-.24,0h0l-.24,0h-.15l-.17,0H35.3A.38.38,0,0,0,35,68a.34.34,0,0,0,.31.36h0l.31.07.36,0h0l.46,0,.05,0,.38,0,.53,0h0l.45,0-.07,0,.31,0-.07,0,.14.07-.07-.05,0,.05,0-.05,0,0h0l0,.07,0-.05,0,.1,0-.1,0,.22v-.07l-.08.31v0l-.14.41v0l-.22.44v0l-.19.38,0,0-.19.55-.2.58-.16.65-.15.6A.27.27,0,0,0,37,73a.31.31,0,0,0,.36-.14l.24-.6.24-.62L38,71l.19-.55,0,0,.19-.41v0l.19-.43,0,0,.17-.41,0-.07.07-.31v-.38l0-.1v0l0-.07,0-.05v0h0l0,0v0l0,0-.08,0L38.47,68l-.17,0-.07,0-.31-.05-.05,0h-.48l-.53,0h-.38l.07,0-.43,0h0l-.38-.07h0l-.31-.05-.07,0a.41.41,0,0,0-.34.12.35.35,0,0,0-.07.34.38.38,0,0,0,.27.24h0l0,0h.07l.07,0h.17l.12,0,.24,0h0l.26,0h0l.28,0h0l.29.1h0l.29.07H37l.24.12,0,0,.14.07.12.07.1,0,0,0-.17-.17v0l0-.41,0,.07,0,.05,0,.07,0,0,0,0,0-.07,0,0,.08,0-.1,0h0l-.12,0-.14,0-.29.1,0,0-.46.2v0l-.67.31-1,.58h0l-1.34.84h0l-1.71,1.1,0,0-2,1.41h0L27.12,75l-2.3,1.61-2.24,1.51h0l-2,1.29v0l-1.68,1.06h0l-1.42.84-1.2.72-1,.6-.86.5h0l-.74.36h0l-.67.29h0l-.21.07a.37.37,0,0,0-.17.46A.34.34,0,0,0,13.15,84.48Z"/><path d="M34.8,39.7l.1-.19,0-.19v-.75l0-.41,0-.4V37.3l0-.46,0-.38,0-.5.07-.44,0-.48v0l.12-.55v0l.12-.65v0l.19-.7.17-.7L36,31.8v0l.1-.55v0l0-.48,0,0V30l0-.29v0l0-.31v0l0-.34-.05-.36,0-.33v0l0-.43v0l0-.36v0l0-.36V24.56l0-.2v-.43l0-.19v-.62l0-.2v-.43l0-.21,0-.15v-2.4l0-.24V18.8l0-.2V17.4l0-.09V17l0-.08v-.36l0-.14v-.1l0-.09V16l0-.12v-.27l0-.05v-.14l0,0a.43.43,0,0,0-.5-.39.46.46,0,0,0-.39.51v-.15l-.07.19v.08l0,.28,0,.36v0l-.08.46v0l-.09.51v0l-.12.48-.17.55-.22.6v0l-.24.58h0L33.5,20v0l-.24.48-.14.32-.1.21a.41.41,0,0,0,.15.51.44.44,0,0,0,.55-.05.47.47,0,0,0,0-.55l0,0,.07.15-.07-.36v0l-.07-.48a.3.3,0,0,0-.29-.24.32.32,0,0,0-.29.24l0,.48L33,21l0-.16,0,0a.44.44,0,0,0,.17.58.45.45,0,0,0,.58-.14l.09-.2.2-.31.26-.48.26-.57v0l.24-.57v0l.22-.6.19-.6.12-.5v0l.12-.48v0l.07-.44.05-.36,0-.26,0,.07.07-.19,0,.07v0l-.07.09h0l-.07.05a.46.46,0,0,0,.17-.57.44.44,0,0,0-.51-.27.45.45,0,0,0-.36.46v.36l0,.05V16l0,.12v.17l0,.1v.21l0,.07v.44l0,.12v2.64l0,.14v1.39l0,.19v.72l0,.22,0,.19v.43l0,.2v.19l0,.21v.82l0,.29v2.35l0,.36,0,.34v0l0,.43,0,.34v0l.08.36,0,.31,0,.32v0l0,.31v.65l-.05.48v-.05l-.09.56h0l-.19.69h0l-.19.67-.17.7,0,0-.12.63v0l-.12.55-.07.48v0l0,.43,0,.5v0l-.05.41v0l0,.43v.89l0,.43v.75l0,.19.12.19a.26.26,0,0,0,.22.12A.3.3,0,0,0,34.8,39.7Z"/><path d="M34.49,17.09l1.17,1,0-.05.22.24,0,0,.22.34,0,0,.29.43.27.41,0,0,.24.31v0l.24.27h0l.17.16h0l.09.1a.32.32,0,0,0,.43,0,.35.35,0,0,0,0-.44l-.07-.09,0,0-.19-.19,0,0-.24-.24h0L37.13,19l0,0-.26-.41-.27-.43,0,0-.24-.31,0,0-.22-.24-.07-.07-1.25-.82a.25.25,0,0,0-.34.08A.23.23,0,0,0,34.49,17.09Z"/><path d="M19.82,21.58l-.36,0a.45.45,0,0,0-.38.48.44.44,0,0,0,.43.41h1.87l.82,0,.82,0h0l.87,0h1.82l.89,0,.86,0,.79,0h0l.62,0,.48,0h.34l.14,0,0,0,.07,0a.56.56,0,0,0,.51-.24.55.55,0,0,0,0-.57l0-.08,0,0-.17-.17,0,0-.22-.21,0,0-.19-.16h0l-.22-.2,0,.05-.15-.17,0,0-.12-.14,0,0L29,20.45l-.09-.09-.15-.08-.17,0-.09,0-.1,0H28.3a.32.32,0,0,0-.27.07l-.05,0a.4.4,0,0,0-.12.41.42.42,0,0,0,.29.31h.05l.31.12h0l.26.1.29.14-.05,0,.24.14-.05,0,.2.21-.08-.07.12.19,0-.09.05.21,0-.07,0,.26v0l0,.26v-.07l-.07.26,0-.09-.19.36,0-.08L29,23,29,23l-.34.34,0,0-.36.29-.4.27-.41.31a.31.31,0,0,0-.1.43.34.34,0,0,0,.43.14l.46-.21,0,0,.46-.24,0,0,.36-.27.05,0,.36-.34,0-.05.26-.33.05-.07.17-.34,0-.1.07-.26V22l0-.27,0-.09-.07-.22,0-.07-.12-.19-.05-.08-.22-.19,0,0-.24-.17,0,0-.29-.15h0l-.26-.12h0l-.29-.12.07,0-.09-.08a.43.43,0,0,0-.65.27.56.56,0,0,0,.14.38H28L28,20.88l0,0,.1.09.1.05,0,0,.07,0,0,0,.12.12-.05-.05.14.17,0,0,.12.14,0,0,.15.16,0,0,.22.22,0,0,.2.15,0,0,.19.19h0l.19.17v0l.05,0a.5.5,0,0,0,.62.08.48.48,0,0,0,.24-.58.5.5,0,0,0-.5-.36h-.22l-.31,0H28.9l-.63,0-.79-.05-.86,0h0l-.89,0H23.83l-.86.05-.82.05-.81,0-.8,0h-1a.44.44,0,0,0-.43.39.49.49,0,0,0,.31.5.45.45,0,0,0,.51-.24l.19-.33c.05-.08,0-.15,0-.24A.22.22,0,0,0,19.82,21.58Z"/><path d="M22.66,25.92l-.27,1.76-.14.93v0l-.19,1.05-.22,1.2v0l-.29,1.27-.33,1.32v0l-.34,1.1-.29.87,0,0-.24.55,0,0-.1.19a.39.39,0,0,0,0,.43.41.41,0,0,0,.72-.16L21.1,36v0l.21-.79v0l.36-1L22,33.08l0,0,.28-1.17v0l.22-1.05.19-1v0l.17-.65,0,0,.16-.48,0,.07.14-.21-.05.07.1-.1-.07.05.12-.05-.15,0h.19l-.12,0,.29.1-.09,0,.31.21-.07-.09.26.36L23.83,29l.24.53,0-.07.14.48,0-.05.07.58v-.07l0,.57v-.09l-.14.45.07-.12-.36.39.12-.1-.5.26.09,0-.53.12h0l-.48,0h-.36l-.33,0,.19.07-.19-.12h0l-.14-.12,0,0,0,0a.48.48,0,0,0-.56,0,.43.43,0,0,0-.19.52.45.45,0,0,0,.43.36h.46l.46,0-.08,0,.53.17-.07,0,.46.24,0,0,.39.24,0,0,.39.26h0l.36.26-.05,0,.32.29,0,0,.36.36.41.39,0,0,.39.29.07.05.38.21.12.05.36.07h.15l.43,0,.07,0,.31-.1a.34.34,0,0,0-.07-.67l-.31,0-.43,0,.09,0-.36-.12.1,0-.41-.19.07,0-.38-.31.05,0-.41-.36h0l-.36-.33v0l-.31-.26v0l-.36-.28,0,0L24,32.31l0,0L23.59,32l-.05,0-.45-.22-.1,0-.53-.12-.09,0-.46-.05h-.53a.49.49,0,0,0-.19.92l0,0-.08,0,.15.1.19.12.19.07.34,0h.07l.48,0h0l.48-.05.08,0,.52-.15.1,0,.48-.29.12-.09.31-.39.07-.12.15-.45,0-.1,0-.58v0l-.08-.6v0l-.14-.48v-.07l-.24-.5-.05-.08-.29-.36-.07,0-.31-.22-.05,0-.29-.12h-.31l-.17,0-.12.05-.07.07-.09.08-.08.09-.12.19,0,.08-.15.48v0l-.17.65v0l-.21,1-.22,1.06-.33,1.15,0,0L21,34l-.36,1v0l-.24.79,0,0-.07.34a.34.34,0,0,0,.24.45.39.39,0,0,0,.5-.16l.1-.2,0-.07.2-.55v0l.28-.87.32-1.13v0l.33-1.32.27-1.3.21-1.2v0l.17-1.06L23,27.8v0L23.26,26a.35.35,0,0,0-.27-.34A.3.3,0,0,0,22.66,25.92Z"/><path d="M73.34,48.94h0l-.07.07,0,.05a.31.31,0,0,0,0,.31v.05a.38.38,0,0,0,.27.22l.17,0h0l.22,0,.28,0,.27,0h0l.27,0h.57l.22,0h3l.31,0h0l.33-.05.39,0h0l.53-.07.5-.08h0l.6,0h0l.6,0,.44,0h2.76l.52,0h1.4l.45,0h0l.39,0,.29.05h0l.31,0h0l.28,0h1.13l.39,0h0l.41,0,.48,0,.5,0,.48-.05.43,0h0l.41-.05.33,0,.34,0h0l.31,0v0l.29,0h0l.26,0h0l.24,0h1.83l.17,0h.16l-.19-.07A.55.55,0,0,0,97.3,49a.56.56,0,0,0-.1-.74l0,0,0,0L96.94,48l-.22-.14-.26-.19-.27-.19-.29-.2-.28-.19h0l-.34-.24h0l-.24-.17-.19-.14-.15-.12-.12-.1-.09,0-.05,0h0v0h-.07l0,0a.44.44,0,0,0-.53.33.45.45,0,0,0,.34.53l0,0,0,0,.19.07h0l.24.1.29.12h0l.33.17,0,0,.26.15.32.17h0L96,48h0l.19.07.2.07,0,0,.14.07-.07-.05.1.08,0-.05,0,.05,0-.05.07.07,0,0,0,.07,0,0,.07.12,0-.05.08.15,0,0,.07.21,0,0,0,.21v.17l0,.14,0,0-.07.19,0-.1-.15.27.1-.1-.34.29.07-.05-.55.34.07,0-.76.31,0,0-.67.24h0l-.77.14h0l-.48.12a.25.25,0,0,0-.24.27.28.28,0,0,0,.24.26l.48.1h.07l.8,0,.09,0,.7-.17,0,0,.76-.31.08,0,.52-.33.1-.08L97.3,50l.09-.12.12-.24,0-.12.07-.19v0l0-.17v0l0-.17v0l0-.12v-.05l0-.24v0l-.09-.24v0l-.08-.15,0,0-.07-.12,0,0,0-.08,0,0-.07-.07,0,0-.05,0,0,0-.08,0-.07-.05-.12,0-.05,0-.19,0h0l-.2-.07,0,0L96.12,47v0l-.31-.16v0l-.27-.14-.31-.15-.31-.14-.22-.1-.19-.07,0,0,0,0a.4.4,0,0,0-.57.1.44.44,0,0,0,0,.6v0l.17.07,0,0,0,0,0,0-.1-.07.12.09v0l.15.12h0l.2.14v0l.21.19.31.24.24.24.29.22.24.21v0l.24.22,0,0,.17.19.16.17.05,0,0,0a.54.54,0,0,0,.74,0,.56.56,0,0,0,.08-.74.57.57,0,0,0-.75-.15l.19-.07h-2l-.22,0h-.05l-.21,0h0l-.24,0,0,0-.26,0,0,0-.31.05h0l-.33,0-.36,0-.41.07h0l-.48.05h0l-.48,0-.51.08-.48,0-.41,0h0l-.41,0h0l-.36,0h-.64l-.29,0h0l-.31,0h0l-.31,0-.38-.07h0l-.45,0H86l-.56,0h-.52l-.46,0h-2.3l-.48,0-.6,0-.6,0-.53.07-.53.08-.38,0-.32,0-.33,0h-.19l-.2,0h-.16l-.08,0H76.63l-.21,0h-.65l-.24,0H74.26L74,49h-.19l-.2,0,.27.14,0,0,0,.36v-.05l.05-.19a.44.44,0,0,0-.2-.29A.38.38,0,0,0,73.34,48.94Z"/><path d="M82.18,38.07l.12.07h0l.31.14h.07l.46.12,0,0,.65.07h0l.67,0h0l.6,0h.93l.39,0h.36a.49.49,0,0,0,.45-.36.44.44,0,0,0-.19-.53.51.51,0,0,0-.58,0l0,0,.1-.07-.2.07.08,0-.34,0a.28.28,0,0,0-.22.21.27.27,0,0,0,.17.27l.31.14,0,0,.19.09-.1-.07,0,0a.51.51,0,0,0,.6.07.5.5,0,0,0-.24-.91h-.34l-.38,0h-1l-.6,0-.68,0h0l-.65,0,0,0-.45-.12,0,0-.33-.12h0l-.14,0a.42.42,0,0,0-.31.77Z"/><path d="M82.82,38.26l-.24,1.39v0l-.12.55-.16.62,0,0-.22.72v0l-.24.69-.28.72-.29.72v0l-.29.65,0,0-.31.5,0,0-.22.31-.1.12,0,.07a.39.39,0,0,0,0,.48.4.4,0,0,0,.5.12l.15-.09v0l.29-.17,0,0,.34-.15-.05,0,.38-.1,0,0,.36,0h.62l.38,0h.44l.4,0,0,0,.48,0h0l.43-.1,0,0,.43-.14,0,0,.31-.14,0,0,.21-.14.07-.05.12-.12.08-.12,0-.12,0-.17v-.09l0-.07,0-.1,0,0-.08-.17a.25.25,0,0,0-.28-.14.26.26,0,0,0-.22.24l0,.19,0-.09,0,.09h0l-.05.07L85.9,44l-.08.09L85.9,44l-.12.1,0,0-.22.15,0,0-.33.15,0,0-.43.17,0,0-.41.09h0l-.5,0,0,0h-.4l-.39,0H83l-.39,0h-.36l-.36,0-.07,0-.38.09h0l-.36.17h0l-.29.15-.17.09a.42.42,0,0,0-.22.41.47.47,0,0,0,.32.34.41.41,0,0,0,.43-.17l0-.05.07-.17.21-.31.29-.53,0,0L82,43.9h0l.29-.72.28-.74v0l.24-.69L83,41V41l.16-.65.08-.55,0-.05.1-1.39a.29.29,0,0,0-.27-.29A.25.25,0,0,0,82.82,38.26Z"/><path d="M82.06,41.16l1.27.1H84l.62,0,0,0,.65-.1,0,0L86,40.9h0l.6-.22,0,0,.57-.22.44-.16a.32.32,0,0,0,.16-.36.31.31,0,0,0-.36-.2l-.43.1-.6.14-.65.17-.67.19,0,0-.65.12h0l-.63,0h0l-.63,0-1.29,0a.33.33,0,0,0-.32.31A.34.34,0,0,0,82.06,41.16Z"/><path d="M79.61,35.26l.19.1.17,0h.43l.58.05.74,0h.89l1,0h1l1,0h0l1,.07,1,.12.89.12.84.1h0l.63,0h0l.53,0h0l.38,0h0l.22,0,0,0,.12,0h.07l.08,0a.44.44,0,0,0,.28-.24.45.45,0,0,0,0-.36l0-.12,0-.07L91.51,35l-.07-.07-.1-.1-.24-.12h0l-.17-.07-.21-.1-.15-.05h0l-.17-.09,0,0-.12-.07,0,0-.09-.07h0l0,0-.09-.07,0,0-.1,0h0a.39.39,0,0,0-.36.12.33.33,0,0,0,0,.38v0l0-.12v.07l0,0v.12l0,.07.08.17,0,.07.12.15,0,0,.17.17.12.14v0l.16.19,0-.07.09.17-.05-.07.05.14v0l0,.17v.12l0,.24,0-.14-.08.21.08-.09-.32.28.08,0-.48.34,0,0-.62.43a.34.34,0,0,0-.1.41.33.33,0,0,0,.38.12l.68-.36h0l.48-.29.08-.07.31-.29.07-.12.1-.21,0-.12v-.51l0,0,0-.17v-.07l-.08-.14,0-.08-.1-.14,0-.07L90.79,35,90.74,35l-.14-.14-.17-.15,0,0-.12-.15,0,.08-.12-.17,0,.07,0-.12,0-.05,0-.07,0,.1v0a.32.32,0,0,0-.24-.29.3.3,0,0,0-.36.12.36.36,0,0,0,0,.38l0,0,0,0,0,0,0,0,0,0v0l.07.09,0,0L90,35,90,35l.16.12h0l.12.07,0,0,.22.12h0l.17.09.24.12-.12-.07.07.07-.07-.14,0,.07,0,.14a.45.45,0,0,0,.84-.33.43.43,0,0,0-.57-.27h0l0,0,0,0-.08.05,0,0-.24,0,0,0-.39,0H90l-.65-.07-.81-.1-.89-.12h0l-1-.12h0l-1-.07H81.74l-.72,0H80l-.17,0-.19.1a.28.28,0,0,0,0,.5Z"/><path d="M69.82,74.91l.07-.07-.15.07h0l.14-.07.07-.1,0,0,0,0,.09-.22v-.09l0-.15,0-.14v0l0-.09,0-.12v0l-.07-.14-.08-.17,0,0-.17-.27,0,0L69.46,73v0l-.27-.31h0l-.24-.27,0,0-.24-.22v0l-.28-.19v0l-.24-.19-.24-.14-.22-.12-.19-.12-.19-.12-.22-.12-.19-.15-.27-.14-.21-.14-.27-.17-.21-.15-.24-.14L65.47,70l-.19-.12-.22-.12h0l-.27-.15v0l-.26-.15-.26-.14L64,69.17,63.72,69l-.31-.17h0l-.31-.14,0,0-.31-.12,0,0-.31-.12-.31-.1-.31-.14-.36-.12h0L61.18,68l-.32-.12-.26-.1-.26-.12-.27-.09-.29-.12-.26-.1-.24-.12-.24-.1L58.87,67l-.21-.07-.22-.1-.14-.07-.22-.07-.24-.12-.22-.07h0l-.24-.1-.26-.12h0l-.21-.07-.32-.07-.28-.07L56,66l-.34-.07-.31-.09-.31-.1-.34-.1v0l-.29-.12-.31-.1-.31-.12h0l-.26-.07-.24-.1-.24-.09L52.9,65l-.22-.07-.19-.12v0l-.22-.12v0l-.21-.12-.24-.15,0,0-.29-.17-.24-.14L51.05,64l-.29-.19-.22-.15-.21-.14-.17-.15L50,63.27v0l-.12-.12-.17-.12h0L49.66,63l-.1-.1-.14-.12h0l-.12-.12-.1-.12-.12-.14,0,0L49,62.16v0l-.1-.17h0l-.17-.24,0,0-.09-.19-.1-.19,0,0-.08-.17h0l-.07-.17v0l0-.17v0l0-.19,0,0,0-.17v-.22l0-.26v.05l0-.27v0l0-.22,0-.21,0-.15,0-.12v0l0-.07v0l0-.07,0,.07.07-.12,0,0,.12-.19.24-.29v0l.26-.29,0,0,.33-.29h0l.34-.24,0,0,.31-.21h0l.31-.22.15-.09.14-.1.07-.05.1,0,.09-.07.15-.12.17-.12h0l.22-.14.17-.12.24-.17.16-.1.17-.12.19-.09.15-.12.14-.1.19-.12.22-.12.22-.14.21-.12.29-.17.22-.17.24-.14.21-.12.22-.17.19-.12.24-.17.19-.12.27-.14.28-.19.2-.15.21-.09h0l.17-.1.07,0,.14-.07.12-.07h0l.17-.1.12,0,.19-.09.19-.1h0l.28-.12,0,0,.24-.1.24-.1.24-.09.17-.05.12,0,.12,0,.12,0,0,0,.09,0,.1,0,.17-.07.19-.07.19-.08.22-.07.19-.07.17-.07.16-.05.2-.07.19,0,.17-.1h0l.17,0,0,0,.22-.07.17-.07h0l.22-.1.24-.09.21-.1.31-.17h0l.19-.12h0l.15-.09,0,0,.1-.07.05,0,0,0,0,0,0,0h0l0,0,0,0,0,0,0,0,.09-.17,0,0,.09-.17,0,.07L63.6,50l0,0,.22-.24v0l.17-.22.14-.22v0l.1-.14v0l0-.07,0-.1,0-.07h0l0,0v0l.07-.17.07-.12v0l.07-.17v0l.07-.2v0l.08-.19v0l0-.19h0l.05-.17,0-.19h0l0-.09v0l0-.12V47l0-.12v0l.07-.16,0,0,0-.12,0,0,0-.12,0,0,0-.17,0,0v-.79l0-.17v0l0-.15v0l0-.17,0-.17,0-.17,0-.14,0-.17,0-.17v0L65,44v0l0-.16v0l0-.19,0,0-.05-.14v0l0-.07v0l0-.12,0,0,0-.12-.07-.12v0l-.1-.17h0l-.1-.19-.14-.24-.1-.22L64,41.81l-.12-.19,0,0-.12-.2-.12-.16v0L63.53,41l-.1-.12-.09-.14h0l-.12-.17h0L63,40.42l-.12-.14,0,0-.15-.14,0,0-.19-.16v0l-.22-.14v0l-.22-.14,0,0-.24-.2h0l-.27-.14,0,0-.24-.12v0l-.31-.14-.24-.1v0l-.27-.1,0,0-.19-.07-.2-.1-.19-.07-.21-.1-.29-.12L59,38.12l-.26-.1-.32-.12-.33-.12-.31-.1-.34-.12-.38-.09h0l-.41-.1h0l-.36-.09-.43-.1-.39-.07L55,37l-.48-.07h0l-.48-.1-.46-.09h0l-.45-.1-.41-.12h0l-.31-.07-.31-.1L52,36.27v0l-.22-.09,0,0-.29-.12L51.26,36l-.21-.1-.27-.12h0l-.19-.07h0l-.21-.09-.22-.1-.14,0h0l-.14-.07,0,0-.14-.07h0l-.12-.07,0,0-.08,0,0,0,0,0-.1-.07h0l-.15-.1h0l-.17-.14,0,0-.14-.14,0,0-.16-.19h0l-.1-.09,0,0-.12-.17h0l0-.07v0l0-.07v0l0-.08,0,0h0l0,0v0l0-.12v0l-.05-.1,0-.14,0,0-.05-.12,0-.12v0l0-.21v0l0-.17,0-.24v0l-.05-.22,0-.24v0l0-.24V32l0,0v0l0-.12,0,.07.07-.19,0,0,.12-.16,0,0,.17-.24.19-.26,0,0,.29-.33-.07.05.33-.27-.07,0,.29-.2,0,0,.2-.1h0l.17-.09.14-.08.17-.09.22-.12.21-.15h0l.31-.24.31-.21.29-.22.29-.19-.05,0,.31-.16h0l.26-.12.29-.17h0l.2-.1.19-.12.19-.09.19-.12.24-.12.29-.15.36-.21,0,0,.44-.24.48-.29h0l.53-.36h0l.51-.33.43-.29.36-.24.33-.22.27-.16.24-.15h0l.29-.17h0l.29-.16.31-.2.31-.16.34-.2.33-.19.34-.21.33-.17h0l.34-.19v0L61,23.6h0l.31-.17.24-.12.33-.19.27-.15h0l.34-.21.38-.2.41-.24h0a.48.48,0,0,0,.27-.4.5.5,0,0,0-.72-.46l-.05,0-.38.22-.41.22-.34.19-.29.14h0l-.36.19-.22.12-.31.17-.26.15L59.9,23l-.33.17v0l-.34.19h0l-.34.19-.33.19-.32.19h0l-.29.2-.29.16-.26.17-.24.15-.26.16-.34.24-.38.24-.44.29-.5.34v0l-.55.36h0l-.48.29-.43.24L53.4,27l-.29.17-.24.15-.19.09-.19.1-.17.09-.19.1h0l-.31.14-.24.15,0,0-.29.15-.05,0-.26.17,0,0-.31.21-.31.24h0L50,29h0l-.22.12h0l-.21.12h0l-.14.08-.15,0,0,0-.17.07v0l-.19.1-.05,0-.26.2-.07,0-.32.29-.07.07-.26.32v0l-.19.26-.17.22,0,0-.09.17-.05.07-.07.2,0,0-.05.12v.1l0,0V32h0v.51l0,.21v0l0,.24v0l.05.24,0,.24.05.17v0l.07.22v0l0,.12v0l.05.12v0l.07.14,0,.12,0,.12,0,0v0l0,0,.05.1,0,0v0l.05.07h0l.12.2,0,0,.07.12,0,0,.15.17,0,0,.17.14v0l.17.14,0,0,.12.09v0l.12.07,0,0,.07.05.07,0,0,0,.12.07h0l.14.08v0l.15,0,0,0,.17.05.21.1.22.09.22.07h0l.29.12.19.1.24.1v0l.29.1,0,0,.21.07h0l.24.07.31.12h0l.32.1h0l.41.1.45.09,0,0,.43.09.48.07.48.1.43.1.39.07.4.07h0l.38.1.41.09h0l.41.12,0,0,.34.09.29.1.31.12.31.1.26.09.27.1.29.09.19.1.19.07.19.07.19.1.27.12.24.1.29.14h0l.24.12,0,0,.26.16,0,0,.24.17v0l.19.17.19.17,0,0,.19.16.14.12h0l.14.15v0l.17.2h0l.12.14.12.12.07.12.12.14.12.17h0l.12.19v0l.12.19.12.19.12.2.12.24.12.19v0l.09.22v0l.05.12.07.09h0l.07.12,0,0,0,.09v0l.05.14v0l0,.19,0,.17,0,0,.05.19v0l0,.2,0,.14v0l0,.17,0,.17,0,.14,0,.2,0,.14,0,.17v0l0,.15v.09l0,.12v0l0,.17v.09l0-.07,0,.17,0-.1,0,.12v0l0,.12v0l-.08.17,0,0,0,.12,0,.1,0,.12,0,.09,0,.19-.05.17,0,.19-.08.2,0,0-.07.22v0l-.1.22,0,0,0,.12v0l-.08.17,0,.07v0l0,.07v0l0,.09v0l-.05.09,0,0-.09.14-.12.22v0l-.15.21,0,0-.22.26,0,0-.17.17-.05,0-.1.17v0l-.09.16,0,0,0,0,0-.05,0,.05,0-.05v0l0,.05,0,0-.07,0h0l-.09.08v0l-.12.12v0l-.19.09h0l-.31.15h0l-.21.09-.22.1-.24.1h0l-.16,0-.22.1-.19.07-.19,0h0l-.19.07-.19.07-.17.05-.17.07-.19.08h0l-.21.07-.19.07v0l-.22.08-.14,0-.1,0-.12.05,0,0-.1,0-.12,0-.14,0-.17.08-.22.07-.26.09-.24.12-.29.12h0l-.2.1h0l-.17.1,0,0-.12.05-.17.09-.12.08-.14.09-.08,0,0,0-.14.07-.2.12-.21.15-.29.19-.26.17-.2.12-.26.16-.17.12-.21.15-.22.14-.24.15-.22.14-.26.17-.24.14-.19.12-.24.15-.17.12-.14.09-.17.1-.17.12-.19.12-.17.12-.24.14v0l-.19.12-.22.14-.17.14-.14.1h0l-.09.07-.1,0-.07.05h0l-.14.09-.17.1-.26.19,0,0-.31.21-.31.24,0,0-.34.28,0,0-.29.29v0l-.27.29-.14.19-.05.05-.07.12,0,0,0,.07v0l0,.07v0l0,.05v.12l0,.1v0l0,.15,0,.21,0,.24v.6l0,.27v0l0,.17,0,.19v0l0,.14.05.19v0l.1.14v.05l.07.19h0l.1.22,0,0,.15.24.12.19v0l.14.19,0,0,.12.15h0l.1.14h0l.12.12v0l.14.14.1.12h0l.12.1.15.14h0l.12.12h0l.09.07h0l.19.17.21.14v0l.24.14.29.19v0l.29.14v0l.24.14.29.17h0l.24.12.24.12.22.12.21.09.22.1.19.07h0l.24.12.26.1.26.09.32.1,0,0,.29.1.31.1.34.09.31.1.33.07v0l.34.08.24.07.29.07.29.07.21.07h0l.29.1.24.07.19.1.24.09.21.1h0l.17,0,.21.09.22.1.17.07L59,68l.24.09.29.1.26.12.24.12.29.12.26.1.29.12.29.09.33.15.34.12.31.12h0l.31.12.34.14.31.12.31.17.29.14,0,0,.29.17.27.14.26.14h0l.26.15h0l.21.12h0l.19.12.24.12.22.14.24.15.26.16v0l.24.12.26.14.22.12.22.12.16.12.2.12v0l.21.14h0l.24.12h0l.24.17h0l.29.22,0,0,.27.22h0l.24.24.27.29,0,0,.2.27,0,0,.19.27,0,0,.07.15,0,0,.07.17,0,.1v0l0,.07.07.15,0-.12v.07l.07-.19,0,.07,0,0,0,.08-.1.19v0l0,.12,0,.09c0,.07.12.15.19.15A.25.25,0,0,0,69.82,74.91Z"/></g></g></svg>